<svg width="22" height="17" viewBox="0 0 22 17" fill="none" xmlns="http://www.w3.org/2000/svg">
<path d="M13 8.50033L9.5 10.5837V6.41699L13 8.50033Z" fill="white" stroke="white" stroke-width="1.5" stroke-linecap="round" stroke-linejoin="round"/>
<path d="M1 9.23678V7.76283C1 4.7472 1 3.23887 1.905 2.26908C2.811 1.29824 4.237 1.25658 7.088 1.1722C8.438 1.13262 9.818 1.10449 11 1.10449C12.181 1.10449 13.561 1.13262 14.912 1.1722C17.763 1.25658 19.189 1.29824 20.094 2.26908C21 3.23887 21 4.74824 21 7.76283V9.23678C21 12.2535 21 13.7607 20.095 14.7316C19.189 15.7014 17.764 15.7441 14.912 15.8274C13.562 15.868 12.182 15.8962 11 15.8962C9.69576 15.8921 8.39163 15.8692 7.088 15.8274C4.237 15.7441 2.811 15.7024 1.905 14.7316C1 13.7607 1 12.2524 1 9.23783V9.23678Z" stroke="white" stroke-width="1.5"/>
</svg>
