<svg width="100" height="100" viewBox="0 0 100 100" fill="none" xmlns="http://www.w3.org/2000/svg">
<path d="M60.1716 98.6512C47.3307 100.769 16.3506 101.068 2.27757 94.4877C0.0190353 93.4328 -0.720749 90.3375 0.793106 88.2144C0.793106 88.2144 13.1024 71.0795 13.46 70.5748C6.53009 54.2919 8.0121 34.4143 18.8467 19.213C34.267 -2.41659 62.7829 -6.37715 82.5389 10.3624C102.295 27.1047 105.813 58.2097 90.3924 79.8392C82.6835 90.6527 71.6994 97.0515 60.1716 98.6512Z" fill="#FFCD20"/>
<path d="M22.848 40.632C23.416 40.728 23.876 40.928 24.228 41.232C24.58 41.536 24.756 42.008 24.756 42.648C24.756 44.216 23.664 45 21.48 45H19.2V36.732H21.156C22.204 36.732 23.004 36.904 23.556 37.248C24.116 37.592 24.396 38.116 24.396 38.82C24.396 39.3 24.244 39.7 23.94 40.02C23.644 40.34 23.28 40.544 22.848 40.632ZM20.34 37.632V40.236H21.588C22.068 40.236 22.46 40.12 22.764 39.888C23.076 39.656 23.232 39.328 23.232 38.904C23.232 38.424 23.068 38.092 22.74 37.908C22.42 37.724 21.932 37.632 21.276 37.632H20.34ZM21.48 44.088C22.152 44.088 22.664 43.988 23.016 43.788C23.376 43.588 23.556 43.208 23.556 42.648C23.556 42.104 23.384 41.712 23.04 41.472C22.696 41.232 22.248 41.112 21.696 41.112H20.34V44.088H21.48ZM30.8462 45L30.2222 42.924H27.0902L26.4662 45H25.3142L27.9662 36.732H29.4062L32.0462 45H30.8462ZM27.3662 42H29.9462L28.6622 37.68L27.3662 42ZM38.0971 36.732L37.9291 37.716H34.4611V45H33.3211V36.732H38.0971ZM42.6235 45L41.9995 42.924H38.8675L38.2435 45H37.0915L39.7435 36.732H41.1835L43.8235 45H42.6235ZM39.1435 42H41.7235L40.4395 37.68L39.1435 42ZM50.5062 39.84C51.4982 39.84 52.2702 40.052 52.8222 40.476C53.3822 40.9 53.6622 41.528 53.6622 42.36C53.6622 43.272 53.3742 43.94 52.7982 44.364C52.2302 44.788 51.4502 45 50.4582 45H48.2742V36.732H52.7742L52.6302 37.668H49.4142V39.84H50.5062ZM50.5542 44.088C51.1622 44.088 51.6302 43.964 51.9582 43.716C52.2862 43.468 52.4502 43.024 52.4502 42.384C52.4502 41.792 52.2862 41.368 51.9582 41.112C51.6302 40.856 51.1502 40.728 50.5182 40.728H49.4142V44.088H50.5542ZM56.3634 36.732V45H55.2234V36.732H56.3634ZM64.2705 36.732V45H63.1305V37.692H60.5385L60.1425 41.256C60.0305 42.248 59.8985 42.992 59.7465 43.488C59.5945 43.976 59.3905 44.336 59.1345 44.568C58.8785 44.792 58.5025 44.984 58.0065 45.144L57.7305 44.256C58.0345 44.144 58.2585 44 58.4025 43.824C58.5545 43.648 58.6705 43.384 58.7505 43.032C58.8305 42.68 58.9145 42.116 59.0025 41.34L59.5425 36.732H64.2705ZM68.9047 39.768C69.8967 39.768 70.6687 39.984 71.2207 40.416C71.7807 40.84 72.0607 41.476 72.0607 42.324C72.0607 43.252 71.7727 43.932 71.1967 44.364C70.6287 44.788 69.8487 45 68.8567 45H66.6727V36.732H67.8127V39.768H68.9047ZM68.9527 44.088C69.5607 44.088 70.0287 43.964 70.3567 43.716C70.6847 43.46 70.8487 43.004 70.8487 42.348C70.8487 41.74 70.6847 41.308 70.3567 41.052C70.0367 40.788 69.5567 40.656 68.9167 40.656H67.8127V44.088H68.9527ZM82.2633 36.732V45H73.5633V36.732H74.6793V44.064H77.3793V36.732H78.4473V44.064H81.1473V36.732H82.2633ZM89.0649 45L88.4409 42.924H85.3089L84.6849 45H83.5329L86.1849 36.732H87.6249L90.2649 45H89.0649ZM85.5849 42H88.1649L86.8809 37.68L85.5849 42Z" fill="#DC281D"/>
<path d="M24.78 65.064H25.74V67.8H24.84L24.66 66H19.2V57.732H20.34V65.064H23.64V57.732H24.78V65.064ZM28.3205 57.732V66H27.1805V57.732H28.3205ZM35.3395 66V62.124H31.8595V66H30.7195V57.732H31.8595V61.188H35.3395V57.732H36.4795V66H35.3395ZM43.2798 66L42.6558 63.924H39.5238L38.8998 66H37.7478L40.3998 57.732H41.8398L44.4798 66H43.2798ZM39.7998 63H42.3798L41.0958 58.68L39.7998 63ZM56.3225 66H55.2185L54.9305 62.268C54.8105 60.804 54.7425 59.68 54.7265 58.896L52.9385 65.064H51.8705L49.9865 58.884C49.9865 59.884 49.9345 61.04 49.8305 62.352L49.5545 66H48.4745L49.1585 57.732H50.6945L52.4345 63.744L54.0905 57.732H55.6385L56.3225 66ZM62.7463 57.732L62.6143 58.644H59.4103V61.344H62.1943V62.256H59.4103V65.088H62.8423V66H58.2703V57.732H62.7463ZM69.3122 66V62.124H65.8322V66H64.6922V57.732H65.8322V61.188H69.3122V57.732H70.4522V66H69.3122ZM81.5484 57.732V66H72.8484V57.732H73.9644V65.064H76.6644V57.732H77.7324V65.064H80.4324V57.732H81.5484ZM88.3501 66L87.7261 63.924H84.5941L83.9701 66H82.8181L85.4701 57.732H86.9101L89.5501 66H88.3501ZM84.8701 63H87.4501L86.1661 58.68L84.8701 63Z" fill="#410C00"/>
</svg>
