<svg width="1200" height="2930" viewBox="0 0 1200 2930" fill="none" xmlns="http://www.w3.org/2000/svg">
<path fill-rule="evenodd" clip-rule="evenodd" d="M443.121 1480.39C455.837 1497.05 471.501 1496.87 485.723 1479.9C495.968 1467.69 525.987 1469.18 534.741 1482.36C543.52 1495.55 562.486 1495.84 573.126 1482.97C585.998 1467.4 612.162 1467.73 624.828 1483.63C634.134 1495.32 652.648 1495.35 662.481 1483.69C675.855 1467.83 701.813 1467.39 714.463 1482.83C725.128 1495.84 742.521 1495.62 752.684 1482.33C763.719 1467.89 791.604 1467.92 804.196 1482.38C816.706 1496.73 832.534 1496.13 843.512 1480.9C847.292 1475.62 854.013 1472.32 861.383 1470.99H876.009C882.384 1472.16 888.132 1474.89 891.673 1479.3C906.052 1497.24 920.102 1497.15 935.049 1479.04C943.384 1468.93 974.851 1469.42 982.79 1479.78C995.876 1496.84 1010.15 1496.92 1024.44 1480C1034.15 1468.49 1065.14 1468.81 1073.87 1480.52C1085.94 1496.73 1100.1 1496.73 1113.26 1480.54C1122.5 1469.19 1152.79 1469.57 1163.59 1479.43C1170.92 1486.13 1182.15 1489.92 1191.63 1495C1194.42 1492.78 1197.18 1490.57 1199.94 1488.35C1196.55 1480.58 1195.17 1471.58 1189.38 1465.31C1176.97 1451.93 1178.53 1435.17 1190.2 1421.25C1195.65 1414.73 1193.66 1402.77 1191.9 1393.69C1190.18 1384.89 1178.08 1373.83 1181.49 1368.59C1197.09 1344.69 1195.76 1323.62 1181.68 1299.19C1176.66 1290.46 1189.62 1275.08 1193.09 1262.5C1194.5 1257.46 1195.03 1249.98 1191.59 1246.71C1176.46 1232.29 1177.37 1217 1189.8 1200.93C1195.17 1193.98 1194.89 1179.46 1189.42 1172.45C1178.17 1157.98 1178.37 1143.04 1189.86 1128.4C1195.24 1121.55 1194.9 1106.98 1189.43 1100.01C1177.68 1085.02 1177.51 1068.66 1189.06 1054.69C1194.53 1048.06 1195.03 1033.66 1189.82 1027.05C1177.73 1011.69 1177.89 996.522 1190.94 980.419C1196.02 974.143 1195.72 959.998 1190.36 953.878C1176.97 938.574 1176.68 923.739 1190.42 907.486C1195.82 901.136 1198.04 886.191 1193.07 881.854C1173.53 864.795 1174.38 850.603 1192.53 833.794C1197.22 829.45 1199.46 819.657 1196.87 814.329C1189.37 798.897 1179.56 784.224 1169.72 768.324V763.085C1179.45 761.899 1187.94 760.862 1200 759.391C1196.59 749.781 1195.98 740.346 1190.36 733.833C1176.78 718.055 1177.67 703.883 1191.11 687.38C1196.23 681.111 1197.48 667.556 1192.62 661.836C1176.23 642.54 1176.01 633.452 1192.65 613.207C1197.52 607.284 1198.3 592.875 1193.24 588.693C1172.63 571.688 1176.13 557.686 1192.16 540.207C1197.23 534.663 1196.34 520.667 1191.21 514.391C1176.54 496.424 1176.41 485.587 1192.86 468.142C1201.44 459.046 1202.94 447.87 1189.52 440.361C1180.58 445.356 1174.23 450.968 1169.71 457.122V435.813C1179.22 419.425 1189.1 403.139 1197.06 386.249C1199.39 381.322 1195.82 372.376 1191.26 367.74C1175.24 351.406 1175.29 337.675 1192.79 320.792C1196.01 317.688 1196.18 312.442 1198.19 307.034C1187.2 311.236 1178.41 314.598 1169.72 317.925V296.861C1177.31 278.589 1184.97 260.188 1193.3 240.174C1185.19 233.539 1175.24 195.151 1181.7 183.297C1182.96 180.986 1185.8 179.143 1188.27 177.408C1203.03 166.964 1202.35 156.974 1188.73 145.811C1175.44 134.94 1176.09 113.421 1189.59 102.794C1202.71 92.4518 1201.28 83.0989 1189.36 73.0614C1176.41 62.1632 1177.16 41.6884 1188.43 29.6651C1193.43 24.3448 1195.91 16.632 1196.63 9.80026C1196.89 7.4078 1187.07 1.34872 1184.32 2.23657C1176.77 4.64258 1168.49 8.72941 1164.18 14.1446C1152.73 28.4655 1123.16 29.4414 1111.76 14.8902C1096.88 -4.08005 1088.15 -2.59578 1072.54 14.8224C1066.31 21.7964 1048.36 22.7317 1035.41 24.0398C1030.12 24.5684 1023.04 19.5327 1018.3 15.7238C1013.48 11.8403 1008.6 1.8977 1007.15 2.32468C998.602 4.8798 991.141 9.76637 983.194 13.7176C975.683 17.4453 967.966 23.9381 960.439 23.8568C951.784 23.7483 939.867 19.5937 935.288 13.9481C922.441 -1.87059 906.645 -3.19898 893.296 12.6942C878.291 30.5801 855.767 29.5702 842.153 11.3049C838.777 6.78427 830.887 3.36164 824.299 2.1078C820.321 1.33517 810.645 5.84898 810.735 7.75345C811.905 31.5086 784.25 22.2234 772.679 30.9325C765.621 24.0262 758.868 16.9098 751.44 10.3018C747.718 6.99437 743.229 2.94143 738.346 2.06714C722.023 -0.881073 713.944 6.90627 713.12 19.1939C712.824 23.6806 713.071 27.8487 714.693 31.2239H700.067C700.306 31.0206 700.512 30.8105 700.66 30.6004C688.068 24.6159 675.369 18.7737 662.942 12.5519C656.329 9.23772 650.185 2.37212 643.844 2.39246C637.47 2.40601 631.293 9.20384 624.705 12.5994C616.486 16.8353 608.415 22.5013 599.373 24.1482C587.802 26.256 575.984 25.7409 571.669 12.0368C570.26 7.51624 559.307 2.31113 552.785 2.36535C546.517 2.41279 536.94 7.82123 534.724 12.6875C526.423 30.9596 506.913 22.2166 492.855 25.0496C489.026 25.8155 480.445 16.7675 476.977 11.027C470.406 0.128774 457.146 -2.27724 446.91 6.50639C437.348 14.7139 427.211 22.4674 419.049 29.0348C421.396 29.7939 424.205 30.5258 427.392 31.2239H375.508C374.924 20.7866 374.397 11.2845 373.853 1.8367C371.58 1.21995 369.291 0.609974 367.001 0C362.464 4.35793 358.865 9.96969 353.199 12.7688C343.382 17.6215 332.561 22.752 321.649 23.7077C316.123 24.1889 309.683 15.5543 303.259 11.454C297.675 7.87545 291.309 1.98581 285.767 2.32468C278.874 2.76522 268.316 7.58402 266.694 12.2334C262.51 24.3244 253.237 24.8056 241.378 24.7446C229.033 24.6836 219.43 24.8802 213.501 12.1792C206.32 -3.21253 186.851 -2.88043 176.993 11.1219C163.363 30.4648 138.212 30.3767 123.693 10.9457C113.967 -2.08747 95.8163 -2.38568 87.1444 10.3492C73.5394 30.2818 51.4437 30.0446 33.7293 11.7793C28.368 6.26241 15.5702 5.65921 6.17351 2.7991C6.25587 11.0609 2.2205 22.0879 7.17 27.049C23.9456 43.8843 24.9503 57.8527 7.97708 75.2234C2.63227 80.6996 2.25344 95.4542 7.43354 100.788C24.1268 117.888 24.2421 131.66 7.59001 148.868C2.26991 154.378 2.23697 169.593 7.67236 174.792C24.4397 190.82 25.5268 204.24 8.27355 219.76C-2.46547 229.418 -2.26782 239.388 8.95709 249.812C24.3244 264.092 24.3244 278.006 8.95709 293.953C3.30758 299.836 2.95345 315.187 8.38061 321.158C23.5585 337.824 24.2833 350.898 8.65238 367.672C3.21699 373.514 3.53817 388.106 8.77591 394.552C22.2903 411.245 22.1585 423.2 8.29826 441.039C3.09346 447.721 2.92875 462.571 8.55356 468.406C23.7232 484.116 24.728 497.475 9.00651 512.074C-1.72428 522.05 -2.99254 532.155 8.03472 542.26C24.6291 557.469 26.0045 571.438 7.47471 587.053C-3.14901 596.026 -2.61371 606.884 10.143 616.61C17.5878 622.289 23.0974 623.143 27.5363 621.273V643.286C26.8939 641.673 26.2598 640.033 25.6421 638.304C19.0455 648.85 17.8761 653.635 14.3348 655.926C-4.21962 667.854 -3.14901 677.824 12.5725 692.457C24.4397 703.504 25.3703 719.804 9.86299 731.956C-2.51488 741.668 -2.97607 752.153 7.77119 761.445C25.9798 777.175 23.7315 791.001 8.35591 807.172C3.19228 812.615 1.38048 823.276 3.94994 830.033C9.99476 845.974 19.3996 861.047 27.5363 876.438V877.231C24.028 876.845 20.5361 876.459 17.0278 876.066C13.6101 880.891 7.7959 885.595 7.36765 890.603C6.83235 897.042 8.81709 904.823 13.2972 909.831C14.656 911.349 20.5279 910.136 27.5363 908.835V920.587C18.6914 933.098 10.4395 944.532 4.50172 956.725C1.16636 963.549 3.30758 975.519 8.85827 981.266C24.0774 996.963 24.5221 1010.91 8.95709 1025.65C-2.37488 1036.39 -2.83606 1045.44 10.2583 1056.45C25.3374 1069.1 24.8103 1084.98 10.2912 1097.52C-3.14078 1109.13 2.73933 1117.21 9.29475 1129.18C15.5125 1140.53 21.2856 1161.81 14.7137 1166.32C-6.97026 1181.16 7.52413 1192.16 13.6513 1204.94C20.635 1219.54 25.115 1232.8 8.55356 1246.9C2.87934 1251.74 3.16758 1267.96 8.74297 1273.88C24.5715 1290.74 23.5668 1303.9 8.52885 1320.6C3.20052 1326.53 3.54641 1341.48 9.08062 1347.43C23.9868 1363.55 24.6456 1377.61 8.80062 1392.09C-2.59723 1402.5 -2.31723 1412.42 8.74297 1421.86C24.8927 1435.7 22.9326 1448.7 11.0901 1464.04C5.71233 1471.03 1.51225 1486.48 5.40762 1489C16.4925 1496.12 28.2692 1492.5 36.4388 1480.78C45.1601 1468.32 76.9077 1468.76 85.7197 1480.29C98.1552 1496.59 112.139 1496.76 125.069 1480.75C135.256 1468.13 165.554 1468.57 175.717 1481.49C187.304 1496.19 204.17 1496.4 215.041 1481.97C225.599 1467.93 254.398 1468.18 265.672 1482.41C275.25 1494.45 294.809 1495.7 303.168 1484.81C316.263 1467.75 341.603 1466.87 355.406 1482.98C367.067 1496.61 384.164 1495.57 395.125 1480.56C403.641 1468.89 434.268 1468.78 443.121 1480.39ZM17.9337 600.845C21.0632 597.484 24.555 594.291 27.5363 590.869V606.864C24.2915 604.83 21.1126 602.831 17.9337 600.845ZM27.5363 1085.92V1105.7C18.4114 1100.22 23.6738 1092.88 27.5363 1085.92Z" fill="#E5AC49"/>
<path fill-rule="evenodd" clip-rule="evenodd" d="M444.383 2915.06C457.077 2932.09 472.715 2931.91 486.914 2914.56C497.142 2902.08 527.11 2903.61 535.841 2917.07C544.614 2930.55 563.549 2930.85 574.171 2917.7C587.022 2901.78 613.142 2902.13 625.779 2918.37C635.077 2930.32 653.56 2930.35 663.377 2918.43C676.72 2902.22 702.644 2901.77 715.272 2917.55C725.919 2930.85 743.283 2930.62 753.429 2917.05C764.446 2902.29 792.285 2902.32 804.856 2917.09C817.345 2931.76 833.147 2931.15 844.098 2915.58C847.88 2910.19 854.589 2906.81 861.939 2905.46H876.549C882.913 2906.66 888.652 2909.44 892.187 2913.95C906.542 2932.29 920.56 2932.19 935.491 2913.68C943.811 2903.35 975.226 2903.86 983.152 2914.44C996.208 2931.88 1010.46 2931.96 1024.73 2914.67C1034.43 2902.89 1065.37 2903.23 1074.08 2915.2C1086.13 2931.76 1100.26 2931.76 1113.41 2915.21C1122.62 2903.61 1152.86 2904 1163.65 2914.08C1170.97 2920.93 1182.18 2924.8 1191.65 2930C1194.43 2927.73 1197.18 2925.46 1199.94 2923.2C1196.56 2915.26 1195.17 2906.05 1189.39 2899.65C1177 2885.97 1178.57 2868.84 1190.22 2854.61C1195.66 2847.95 1193.67 2835.73 1191.91 2826.45C1190.19 2817.45 1178.11 2806.14 1181.52 2800.8C1197.1 2776.36 1195.76 2754.83 1181.71 2729.86C1176.7 2720.94 1189.63 2705.22 1193.1 2692.36C1194.51 2687.21 1195.03 2679.57 1191.61 2676.23C1176.49 2661.48 1177.41 2645.86 1189.82 2629.43C1195.17 2622.34 1194.89 2607.49 1189.44 2600.33C1178.2 2585.53 1178.39 2570.27 1189.88 2555.3C1195.25 2548.3 1194.91 2533.41 1189.45 2526.3C1177.72 2510.97 1177.55 2494.24 1189.07 2479.97C1194.54 2473.19 1195.04 2458.47 1189.84 2451.71C1177.77 2436.01 1177.92 2420.51 1190.96 2404.05C1196.03 2397.65 1195.72 2383.18 1190.38 2376.93C1177 2361.29 1176.72 2346.12 1190.44 2329.51C1195.83 2323.02 1198.04 2307.75 1193.09 2303.31C1173.58 2285.88 1174.42 2271.37 1192.54 2254.2C1197.22 2249.75 1199.47 2239.74 1196.88 2234.3C1189.39 2218.52 1179.59 2203.53 1169.77 2187.28V2181.93C1179.49 2180.71 1187.96 2179.66 1200 2178.15C1196.6 2168.32 1195.99 2158.68 1190.38 2152.02C1176.81 2135.9 1177.7 2121.41 1191.12 2104.55C1196.23 2098.14 1197.48 2084.28 1192.63 2078.44C1176.27 2058.72 1176.05 2049.43 1192.67 2028.74C1197.53 2022.68 1198.3 2007.95 1193.25 2003.68C1172.68 1986.3 1176.17 1971.99 1192.17 1954.13C1197.23 1948.46 1196.34 1934.15 1191.23 1927.74C1176.58 1909.38 1176.45 1898.3 1192.86 1880.47C1201.44 1871.18 1202.93 1859.76 1189.53 1852.07C1180.61 1857.18 1174.27 1862.92 1169.76 1869.21V1847.43C1179.26 1830.68 1189.11 1814.03 1197.06 1796.77C1199.39 1791.73 1195.82 1782.59 1191.28 1777.85C1175.28 1761.16 1175.33 1747.13 1192.81 1729.87C1196.01 1726.69 1196.18 1721.33 1198.18 1715.8C1187.22 1720.1 1178.45 1723.54 1169.77 1726.94V1705.41C1177.35 1686.73 1185 1667.92 1193.31 1647.47C1185.21 1640.69 1175.28 1601.46 1181.73 1589.34C1182.99 1586.97 1185.83 1585.09 1188.29 1583.32C1203.03 1572.65 1202.34 1562.43 1188.74 1551.02C1175.48 1539.91 1176.13 1517.92 1189.61 1507.06C1202.7 1496.49 1201.28 1486.93 1189.38 1476.67C1176.44 1465.54 1177.2 1444.6 1188.45 1432.32C1193.44 1426.88 1195.91 1418.99 1196.64 1412.01C1196.89 1409.56 1187.09 1403.37 1184.35 1404.28C1176.81 1406.74 1168.54 1410.92 1164.24 1416.45C1152.81 1431.09 1123.29 1432.08 1111.9 1417.21C1097.05 1397.82 1088.33 1399.34 1072.75 1417.14C1066.53 1424.27 1048.61 1425.23 1035.68 1426.56C1030.4 1427.1 1023.33 1421.96 1018.6 1418.07C1013.79 1414.09 1008.92 1403.93 1007.47 1404.38C998.938 1406.98 991.489 1411.98 983.555 1416.01C976.057 1419.82 968.353 1426.47 960.838 1426.38C952.197 1426.27 940.301 1422.02 935.729 1416.25C922.903 1400.08 907.126 1398.73 893.807 1414.97C878.819 1433.25 856.34 1432.22 842.75 1413.55C839.379 1408.93 831.503 1405.43 824.925 1404.15C820.954 1403.36 811.294 1407.97 811.376 1409.92C812.551 1434.2 784.935 1424.71 773.383 1433.61C766.345 1426.55 759.604 1419.28 752.188 1412.52C748.463 1409.14 743.991 1405 739.115 1404.11C722.82 1401.09 714.754 1409.06 713.932 1421.61C713.636 1426.2 713.883 1430.46 715.502 1433.91H700.901C701.139 1433.7 701.345 1433.49 701.493 1433.27C688.921 1427.15 676.235 1421.18 663.837 1414.82C657.235 1411.43 651.102 1404.42 644.771 1404.44C638.407 1404.45 632.241 1411.4 625.664 1414.87C617.458 1419.2 609.401 1424.99 600.374 1426.67C588.822 1428.83 577.024 1428.3 572.716 1414.3C571.31 1409.68 560.367 1404.36 553.863 1404.41C547.607 1404.46 538.045 1409.99 535.825 1414.97C527.546 1433.64 508.068 1424.7 494.026 1427.6C490.211 1428.38 481.644 1419.13 478.182 1413.26C471.622 1402.12 458.376 1399.67 448.165 1408.65C438.611 1417.03 428.499 1424.96 420.343 1431.67C422.694 1432.45 425.498 1433.2 428.679 1433.91H376.883C376.299 1423.24 375.773 1413.53 375.23 1403.87C372.961 1403.24 370.675 1402.62 368.39 1402C363.859 1406.45 360.258 1412.19 354.61 1415.05C344.81 1420 334.006 1425.25 323.113 1426.22C317.596 1426.72 311.166 1417.89 304.754 1413.7C299.179 1410.04 292.824 1404.02 287.291 1404.37C280.409 1404.82 269.869 1409.74 268.249 1414.5C264.072 1426.86 254.815 1427.35 242.967 1427.29C230.651 1427.22 221.065 1427.42 215.145 1414.44C207.976 1398.71 188.531 1399.05 178.698 1413.36C165.091 1433.13 139.974 1433.04 125.479 1413.18C115.777 1399.86 97.6484 1399.55 88.9909 1412.58C75.4169 1432.94 53.358 1432.71 35.6731 1414.03C30.3208 1408.39 17.5442 1407.78 8.16322 1404.85C8.24544 1413.3 4.2168 1424.57 9.14983 1429.64C25.9057 1446.85 26.9087 1461.12 9.96378 1478.88C4.62788 1484.47 4.24969 1499.55 9.42115 1505.01C26.0866 1522.49 26.2017 1536.57 9.56914 1554.15C4.25791 1559.78 4.23324 1575.33 9.65135 1580.64C26.3908 1597.03 27.476 1610.74 10.2598 1626.61C-0.461359 1636.48 -0.264039 1646.67 10.9422 1657.32C26.2839 1671.91 26.2839 1686.14 10.9422 1702.44C5.29384 1708.45 4.94853 1724.14 10.3666 1730.24C25.5193 1747.27 26.2428 1760.64 10.6297 1777.78C5.21163 1783.75 5.53227 1798.67 10.7613 1805.25C24.2531 1822.32 24.1216 1834.53 10.2844 1852.77C5.0883 1859.6 4.92387 1874.78 10.5311 1880.74C25.6837 1896.8 26.6868 1910.45 10.9915 1925.37C0.278595 1935.57 -0.995771 1945.89 10.0213 1956.22C26.5881 1971.77 27.9529 1986.04 9.46225 2002C-1.14376 2011.18 -0.609349 2022.27 12.1261 2032.21C19.5585 2038.02 25.0506 2038.89 29.4904 2036.98V2059.48C28.8491 2057.83 28.216 2056.15 27.5994 2054.39C21.0138 2065.17 19.8463 2070.06 16.3027 2072.4C-2.21258 2084.59 -1.14376 2094.78 14.5515 2109.73C26.399 2121.03 27.3281 2137.69 11.8466 2150.11C-0.51069 2160.03 -0.971108 2170.75 9.75824 2180.25C27.9282 2196.32 25.6919 2210.46 10.342 2226.99C5.18696 2232.55 3.36996 2243.44 5.94336 2250.35C11.9781 2266.64 21.3673 2282.05 29.4904 2297.78V2298.59C25.9879 2298.19 22.5019 2297.8 18.9994 2297.4C15.5874 2302.33 9.7829 2307.14 9.35537 2312.26C8.82096 2318.84 10.8024 2326.79 15.275 2331.91C16.6316 2333.46 22.4937 2332.22 29.4904 2330.89V2342.9C20.652 2355.69 12.4221 2367.37 6.49421 2379.84C3.16442 2386.81 5.29384 2399.04 10.8435 2404.92C26.0372 2420.97 26.4812 2435.22 10.9422 2450.28C-0.37092 2461.26 -0.831335 2470.5 12.2412 2481.77C27.2952 2494.7 26.769 2510.92 12.2741 2523.74C-1.13554 2535.61 4.73477 2543.86 11.2793 2556.1C17.4867 2567.7 23.2501 2589.45 16.6891 2594.06C-4.95864 2609.23 9.51159 2620.47 15.6285 2633.53C22.6006 2648.45 27.0732 2662 10.5393 2676.42C4.86632 2681.37 5.1623 2697.94 10.7284 2703.99C26.5305 2721.22 25.5275 2734.68 10.5146 2751.74C5.19518 2757.81 5.5405 2773.08 11.0573 2779.18C25.9468 2795.64 26.6045 2810.02 10.786 2824.81C-0.592906 2835.45 -0.313369 2845.59 10.7284 2855.24C26.8512 2869.38 24.8944 2882.67 13.0634 2898.35C7.70281 2905.5 3.50973 2921.29 7.3986 2923.86C18.465 2931.14 30.2221 2927.44 38.378 2915.46C47.0848 2902.73 78.7796 2903.18 87.5686 2914.96C99.9916 2931.63 113.952 2931.79 126.86 2915.44C137.03 2902.53 167.278 2902.98 177.424 2916.18C188.992 2931.21 205.822 2931.42 216.682 2916.67C227.223 2902.33 255.966 2902.58 267.23 2917.12C276.791 2929.43 296.318 2930.72 304.663 2919.57C317.736 2902.14 343.034 2901.25 356.813 2917.72C368.455 2931.64 385.524 2930.57 396.467 2915.24C404.968 2903.31 435.545 2903.19 444.383 2915.06ZM19.9038 2016.11C23.0199 2012.67 26.5059 2009.41 29.4904 2005.91V2022.25C26.251 2020.17 23.0692 2018.14 19.9038 2016.11ZM29.4904 2511.88V2532.1C20.3807 2526.5 25.6344 2519 29.4904 2511.88Z" fill="white"/>
</svg>
