<svg width="980" height="2930" viewBox="0 0 980 2930" fill="none" xmlns="http://www.w3.org/2000/svg">
<path fill-rule="evenodd" clip-rule="evenodd" d="M354.497 1480.39C364.67 1497.05 377.201 1496.87 388.579 1479.9C396.775 1467.69 420.789 1469.18 427.793 1482.36C434.816 1495.55 449.989 1495.84 458.501 1482.97C468.799 1467.4 489.73 1467.73 499.863 1483.63C507.307 1495.32 522.118 1495.35 529.985 1483.69C540.684 1467.83 561.451 1467.39 571.57 1482.83C580.102 1495.84 594.017 1495.62 602.147 1482.33C610.975 1467.89 633.283 1467.92 643.357 1482.38C653.365 1496.73 666.028 1496.13 674.81 1480.9C677.834 1475.62 683.21 1472.32 689.107 1470.99H700.807C705.907 1472.16 710.506 1474.89 713.339 1479.3C724.842 1497.24 736.082 1497.15 748.039 1479.04C754.707 1468.93 779.881 1469.42 786.232 1479.78C796.701 1496.84 808.119 1496.92 819.549 1480C827.324 1468.49 852.116 1468.81 859.093 1480.52C868.751 1496.73 880.077 1496.73 890.611 1480.54C897.997 1469.19 922.229 1469.57 930.873 1479.43C936.737 1486.13 945.723 1489.92 953.306 1495C955.533 1492.78 957.74 1490.57 959.954 1488.35C957.24 1480.58 956.133 1471.58 951.501 1465.31C941.572 1451.93 942.824 1435.17 952.16 1421.25C956.521 1414.73 954.927 1402.77 953.524 1393.69C952.14 1384.89 942.462 1373.83 945.189 1368.59C957.674 1344.69 956.607 1323.62 945.347 1299.19C941.329 1290.46 951.692 1275.08 954.472 1262.5C955.599 1257.46 956.021 1249.98 953.273 1246.71C941.17 1232.29 941.895 1217 951.844 1200.93C956.133 1193.98 955.909 1179.46 951.534 1172.45C942.534 1157.98 942.692 1143.04 951.89 1128.4C956.192 1121.55 955.922 1106.98 951.547 1100.01C942.146 1085.02 942.007 1068.66 951.244 1054.69C955.625 1048.06 956.027 1033.66 951.857 1027.05C942.185 1011.69 942.31 996.522 952.753 980.419C956.818 974.143 956.574 959.998 952.292 953.878C941.572 938.574 941.342 923.739 952.338 907.486C956.66 901.136 958.432 886.191 954.459 881.854C938.825 864.795 939.504 850.603 954.024 833.794C957.78 829.45 959.572 819.657 957.496 814.329C951.494 798.897 943.648 784.224 935.775 768.324V763.085C943.562 761.899 950.348 760.862 960 759.391C957.272 749.781 956.785 740.346 952.292 733.833C941.421 718.055 942.132 703.883 952.885 687.38C956.983 681.111 957.984 667.556 954.097 661.836C940.986 642.54 940.808 633.452 954.123 613.207C958.017 607.284 958.636 592.875 954.591 588.693C938.107 571.688 940.9 557.686 953.728 540.207C957.786 534.663 957.068 520.667 952.97 514.391C941.23 496.424 941.131 485.587 954.288 468.142C961.153 459.046 962.352 447.87 951.62 440.361C944.465 445.356 939.385 450.968 935.768 457.122V435.813C943.378 419.425 951.277 403.139 957.648 386.249C959.512 381.322 956.653 372.376 953.01 367.74C940.189 351.406 940.228 337.675 954.235 320.792C956.805 317.688 956.943 312.442 958.551 307.034C949.762 311.236 942.732 314.598 935.775 317.925V296.861C941.849 278.589 947.976 260.188 954.644 240.174C948.154 233.539 940.189 195.151 945.361 183.297C946.369 180.986 948.642 179.143 950.618 177.408C962.425 166.964 961.878 156.974 950.981 145.811C940.354 134.94 940.874 113.421 951.672 102.794C962.168 92.4518 961.028 83.0989 951.488 73.0614C941.124 62.1632 941.731 41.6884 950.743 29.6651C954.743 24.3448 956.726 16.632 957.305 9.80026C957.51 7.4078 949.656 1.34872 947.456 2.23657C941.414 4.64258 934.793 8.72941 931.341 14.1446C922.183 28.4655 898.531 29.4414 889.406 14.8902C877.501 -4.08005 870.517 -2.59578 858.032 14.8224C853.045 21.7964 838.689 22.7317 828.325 24.0398C824.095 24.5684 818.429 19.5327 814.641 15.7238C810.787 11.8403 806.88 1.8977 805.72 2.32468C798.882 4.8798 792.913 9.76637 786.555 13.7176C780.546 17.4453 774.373 23.9381 768.351 23.8568C761.427 23.7483 751.894 19.5937 748.23 13.9481C737.953 -1.87059 725.316 -3.19898 714.636 12.6942C702.632 30.5801 684.613 29.5702 673.723 11.3049C671.022 6.78427 664.71 3.36164 659.439 2.1078C656.257 1.33517 648.516 5.84898 648.588 7.75345C649.524 31.5086 627.4 22.2234 618.143 30.9325C612.497 24.0262 607.095 16.9098 601.152 10.3018C598.174 6.99437 594.583 2.94143 590.677 2.06714C577.618 -0.881073 571.155 6.90627 570.496 19.1939C570.259 23.6806 570.457 27.8487 571.755 31.2239H560.054C560.245 31.0206 560.41 30.8105 560.528 30.6004C550.455 24.6159 540.295 18.7737 530.354 12.5519C525.063 9.23772 520.148 2.37212 515.075 2.39246C509.976 2.40601 505.035 9.20384 499.764 12.5994C493.189 16.8353 486.732 22.5013 479.498 24.1482C470.241 26.256 460.787 25.7409 457.335 12.0368C456.208 7.51624 447.446 2.31113 442.228 2.36535C437.214 2.41279 429.552 7.82123 427.779 12.6875C421.138 30.9596 405.531 22.2166 394.284 25.0496C391.221 25.8155 384.356 16.7675 381.582 11.027C376.324 0.128774 365.717 -2.27724 357.528 6.50639C349.879 14.7139 341.768 22.4674 335.239 29.0348C337.117 29.7939 339.364 30.5258 341.913 31.2239H300.407C299.939 20.7866 299.517 11.2845 299.083 1.8367C297.264 1.21995 295.433 0.609974 293.601 0C289.971 4.35793 287.092 9.96969 282.559 12.7688C274.706 17.6215 266.049 22.752 257.319 23.7077C252.898 24.1889 247.746 15.5543 242.607 11.454C238.14 7.87545 233.047 1.98581 228.614 2.32468C223.099 2.76522 214.653 7.58402 213.355 12.2334C210.008 24.3244 202.589 24.8056 193.102 24.7446C183.226 24.6836 175.544 24.8802 170.801 12.1792C165.056 -3.21253 149.481 -2.88043 141.594 11.1219C130.691 30.4648 110.57 30.3767 98.9546 10.9457C91.1738 -2.08747 76.6531 -2.38568 69.7155 10.3492C58.8316 30.2818 41.155 30.0446 26.9834 11.7793C22.6944 6.26241 12.4561 5.65921 4.93881 2.7991C5.00469 11.0609 1.7764 22.0879 5.736 27.049C19.1565 43.8843 19.9603 57.8527 6.38166 75.2234C2.10582 80.6996 1.80275 95.4542 5.94683 100.788C19.3014 117.888 19.3937 131.66 6.07201 148.868C1.81593 154.378 1.78958 169.593 6.13789 174.792C19.5518 190.82 20.4214 204.24 6.61884 219.76C-1.97237 229.418 -1.81425 239.388 7.16567 249.812C19.4595 264.092 19.4595 278.006 7.16567 293.953C2.64606 299.836 2.36276 315.187 6.70449 321.158C18.8468 337.824 19.4266 350.898 6.92191 367.672C2.57359 373.514 2.83054 388.106 7.02073 394.552C17.8322 411.245 17.7268 423.2 6.63861 441.039C2.47477 447.721 2.343 462.571 6.84285 468.406C18.9786 484.116 19.7824 497.475 7.2052 512.074C-1.37942 522.05 -2.39403 532.155 6.42778 542.26C19.7033 557.469 20.8036 571.438 5.97977 587.053C-2.51921 596.026 -2.09097 606.884 8.1144 616.61C14.0703 622.289 18.4779 623.143 22.029 621.273V643.286C21.5151 641.673 21.0078 640.033 20.5137 638.304C15.2364 648.85 14.3009 653.635 11.4679 655.926C-3.3757 667.854 -2.51921 677.824 10.058 692.457C19.5518 703.504 20.2963 719.804 7.89039 731.956C-2.0119 741.668 -2.38085 752.153 6.21695 761.445C20.7838 777.175 18.9852 791.001 6.68472 807.172C2.55383 812.615 1.10439 823.276 3.15995 830.033C7.99581 845.974 15.5197 861.047 22.029 876.438V877.231C19.2224 876.845 16.4289 876.459 13.6223 876.066C10.8881 880.891 6.23672 885.595 5.89412 890.603C5.46588 897.042 7.05367 904.823 10.6377 909.831C11.7248 911.349 16.4223 910.136 22.029 908.835V920.587C14.9531 933.098 8.35158 944.532 3.60137 956.725C0.933091 963.549 2.64606 975.519 7.08661 981.266C19.2619 996.963 19.6177 1010.91 7.16567 1025.65C-1.8999 1036.39 -2.26885 1045.44 8.20663 1056.45C20.2699 1069.1 19.8483 1084.98 8.23299 1097.52C-2.51262 1109.13 2.19147 1117.21 7.4358 1129.18C12.41 1140.53 17.0284 1161.81 11.7709 1166.32C-5.57621 1181.16 6.0193 1192.16 10.921 1204.94C16.508 1219.54 20.092 1232.8 6.84285 1246.9C2.30347 1251.74 2.53406 1267.96 6.99438 1273.88C19.6572 1290.74 18.8534 1303.9 6.82308 1320.6C2.56041 1326.53 2.83712 1341.48 7.2645 1347.43C19.1894 1363.55 19.7165 1377.61 7.0405 1392.09C-2.07779 1402.5 -1.85378 1412.42 6.99438 1421.86C19.9141 1435.7 18.3461 1448.7 8.87206 1464.04C4.56986 1471.03 1.2098 1486.48 4.32609 1489C13.194 1496.12 22.6154 1492.5 29.151 1480.78C36.1281 1468.32 61.5262 1468.76 68.5757 1480.29C78.5241 1496.59 89.7112 1496.76 100.055 1480.75C108.205 1468.13 132.443 1468.57 140.573 1481.49C149.843 1496.19 163.336 1496.4 172.033 1481.97C180.479 1467.93 203.518 1468.18 212.538 1482.41C220.2 1494.45 235.848 1495.7 242.535 1484.81C253.01 1467.75 273.283 1466.87 284.325 1482.98C293.654 1496.61 307.331 1495.57 316.1 1480.56C322.913 1468.89 347.415 1468.78 354.497 1480.39ZM14.347 600.845C16.8506 597.484 19.644 594.291 22.029 590.869V606.864C19.4332 604.83 16.8901 602.831 14.347 600.845ZM22.029 1085.92V1105.7C14.7291 1100.22 18.9391 1092.88 22.029 1085.92Z" fill="#E5AC49"/>
<path fill-rule="evenodd" clip-rule="evenodd" d="M361.883 2915.06C372.267 2932.09 385.059 2931.91 396.674 2914.56C405.041 2902.08 429.556 2903.61 436.698 2917.07C443.875 2930.55 459.364 2930.85 468.053 2917.7C478.565 2901.78 499.932 2902.13 510.27 2918.37C517.876 2930.32 532.996 2930.35 541.026 2918.43C551.942 2902.22 573.147 2901.77 583.478 2917.55C592.188 2930.85 606.392 2930.62 614.692 2917.05C623.704 2902.29 646.477 2902.32 656.76 2917.09C666.977 2931.76 679.903 2931.15 688.862 2915.58C691.955 2910.19 697.444 2906.81 703.456 2905.46H715.408C720.613 2906.66 725.308 2909.44 728.2 2913.95C739.943 2932.29 751.41 2932.19 763.624 2913.68C770.43 2903.35 796.128 2903.86 802.612 2914.44C813.292 2931.88 824.954 2931.96 836.623 2914.67C844.56 2902.89 869.868 2903.23 876.991 2915.2C886.85 2931.76 898.412 2931.76 909.166 2915.21C916.699 2903.61 941.442 2904 950.266 2914.08C956.252 2920.93 965.426 2924.8 973.167 2930C975.44 2927.73 977.693 2925.46 979.953 2923.2C977.182 2915.26 976.052 2906.05 971.324 2899.65C961.188 2885.97 962.466 2868.84 971.997 2854.61C976.449 2847.95 974.821 2835.73 973.382 2826.45C971.976 2817.45 962.096 2806.14 964.881 2800.8C977.626 2776.36 976.53 2754.83 965.042 2729.86C960.94 2720.94 971.519 2705.22 974.357 2692.36C975.507 2687.21 975.938 2679.57 973.133 2676.23C960.771 2661.48 961.518 2645.86 971.674 2629.43C976.052 2622.34 975.823 2607.49 971.358 2600.33C962.17 2585.53 962.325 2570.27 971.721 2555.3C976.113 2548.3 975.837 2533.41 971.371 2526.3C961.774 2510.97 961.632 2494.24 971.062 2479.97C975.534 2473.19 975.944 2458.47 971.687 2451.71C961.814 2436.01 961.942 2420.51 972.602 2404.05C976.752 2397.65 976.496 2383.18 972.131 2376.93C961.188 2361.29 960.953 2346.12 972.178 2329.51C976.59 2323.02 978.399 2307.75 974.344 2303.31C958.384 2285.88 959.077 2271.37 973.9 2254.2C977.727 2249.75 979.563 2239.74 977.444 2234.3C971.317 2218.52 963.307 2203.53 955.27 2187.28V2181.93C963.22 2180.71 970.147 2179.66 980 2178.15C977.216 2168.32 976.718 2158.68 972.131 2152.02C961.034 2135.9 961.76 2121.41 972.736 2104.55C976.92 2098.14 977.942 2084.28 973.974 2078.44C960.59 2058.72 960.408 2049.43 974.001 2028.74C977.976 2022.68 978.608 2007.95 974.478 2003.68C957.651 1986.3 960.502 1971.99 973.597 1954.13C977.733 1948.46 977.007 1934.15 972.824 1927.74C960.839 1909.38 960.738 1898.3 974.162 1880.47C981.177 1871.18 982.394 1859.76 971.438 1852.07C964.141 1857.18 958.956 1862.92 955.263 1869.21V1847.43C963.031 1830.68 971.095 1814.03 977.599 1796.77C979.502 1791.73 976.583 1782.59 972.864 1777.85C959.776 1761.16 959.816 1747.13 974.115 1729.87C976.738 1726.69 976.873 1721.33 978.514 1715.8C969.548 1720.1 962.372 1723.54 955.27 1726.94V1705.41C961.471 1686.73 967.726 1667.92 974.525 1647.47C967.901 1640.69 959.776 1601.46 965.056 1589.34C966.085 1586.97 968.405 1585.09 970.423 1583.32C982.475 1572.65 981.917 1562.43 970.793 1551.02C959.944 1539.91 960.476 1517.92 971.499 1507.06C982.213 1496.49 981.049 1486.93 971.311 1476.67C960.731 1465.54 961.35 1444.6 970.551 1432.32C974.633 1426.88 976.657 1418.99 977.249 1412.01C977.458 1409.56 969.441 1403.37 967.194 1404.28C961.027 1406.74 954.268 1410.92 950.744 1416.45C941.395 1431.09 917.25 1432.08 907.935 1417.21C895.782 1397.82 888.653 1399.34 875.908 1417.14C870.816 1424.27 856.161 1425.23 845.582 1426.56C841.264 1427.1 835.48 1421.96 831.613 1418.07C827.678 1414.09 823.69 1403.93 822.506 1404.38C815.525 1406.98 809.432 1411.98 802.942 1416.01C796.808 1419.82 790.506 1426.47 784.359 1426.38C777.29 1426.27 767.558 1422.02 763.819 1416.25C753.327 1400.08 740.42 1398.73 729.525 1414.97C717.264 1433.25 698.876 1432.22 687.759 1413.55C685.001 1408.93 678.558 1405.43 673.178 1404.15C669.929 1403.36 662.026 1407.97 662.094 1409.92C663.055 1434.2 640.464 1424.71 631.015 1433.61C625.258 1426.55 619.743 1419.28 613.676 1412.52C610.629 1409.14 606.971 1405 602.982 1404.11C589.652 1401.09 583.054 1409.06 582.382 1421.61C582.14 1426.2 582.341 1430.46 583.666 1433.91H571.722C571.917 1433.7 572.085 1433.49 572.206 1433.27C561.922 1427.15 551.545 1421.18 541.403 1414.82C536.002 1411.43 530.985 1404.42 525.806 1404.44C520.6 1404.45 515.556 1411.4 510.176 1414.87C503.463 1419.2 496.872 1424.99 489.488 1426.67C480.038 1428.83 470.387 1428.3 466.863 1414.3C465.713 1409.68 456.761 1404.36 451.441 1404.41C446.323 1404.46 438.501 1409.99 436.685 1414.97C429.912 1433.64 413.979 1424.7 402.492 1427.6C399.371 1428.38 392.363 1419.13 389.532 1413.26C384.165 1402.12 373.33 1399.67 364.976 1408.65C357.161 1417.03 348.889 1424.96 342.217 1431.67C344.14 1432.45 346.434 1433.2 349.037 1433.91H306.665C306.188 1423.24 305.757 1413.53 305.313 1403.87C303.457 1403.24 301.587 1402.62 299.718 1402C296.012 1406.45 293.066 1412.19 288.446 1415.05C280.429 1420 271.591 1425.25 262.68 1426.22C258.167 1426.72 252.907 1417.89 247.661 1413.7C243.102 1410.04 237.903 1404.02 233.376 1404.37C227.747 1404.82 219.125 1409.74 217.8 1414.5C214.383 1426.86 206.81 1427.35 197.118 1427.29C187.044 1427.22 179.201 1427.42 174.359 1414.44C168.494 1398.71 152.588 1399.05 144.544 1413.36C133.413 1433.13 112.867 1433.04 101.009 1413.18C93.0732 1399.86 78.2433 1399.55 71.1612 1412.58C60.0572 1432.94 42.0124 1432.71 27.5456 1414.03C23.1672 1408.39 12.7156 1407.78 5.0417 1404.85C5.10896 1413.3 1.81341 1424.57 5.84878 1429.64C19.5556 1446.85 20.3761 1461.12 6.51461 1478.88C2.14969 1484.47 1.84031 1499.55 6.07072 1505.01C19.7035 1522.49 19.7977 1536.57 6.19178 1554.15C1.84704 1559.78 1.82686 1575.33 6.25904 1580.64C19.9524 1597.03 20.8402 1610.74 6.75673 1626.61C-2.01347 1636.48 -1.85205 1646.67 7.31496 1657.32C19.865 1671.91 19.865 1686.14 7.31496 1702.44C2.69446 1708.45 2.41199 1724.14 6.84417 1730.24C19.2395 1747.27 19.8313 1760.64 7.05939 1777.78C2.62721 1783.75 2.88951 1798.67 7.167 1805.25C18.2037 1822.32 18.0961 1834.53 6.77691 1852.77C2.52632 1859.6 2.39181 1874.78 6.97868 1880.74C19.374 1896.8 20.1945 1910.45 7.35531 1925.37C-1.40816 1935.57 -2.45063 1945.89 6.56169 1956.22C20.1138 1971.77 21.2303 1986.04 6.10435 2002C-2.57169 2011.18 -2.13453 2022.27 8.28345 2032.21C14.3634 2038.02 18.8561 2038.89 22.4879 2036.98V2059.48C21.9633 2057.83 21.4455 2056.15 20.9411 2054.39C15.5538 2065.17 14.5988 2070.06 11.7001 2072.4C-3.44602 2084.59 -2.57169 2094.78 10.2675 2109.73C19.9591 2121.03 20.7191 2137.69 8.05478 2150.11C-2.05382 2160.03 -2.43046 2170.75 6.34647 2180.25C21.2101 2196.32 19.3807 2210.46 6.82399 2226.99C2.60703 2232.55 1.12067 2243.44 3.22579 2250.35C8.16239 2266.64 15.843 2282.05 22.4879 2297.78V2298.59C19.6228 2298.19 16.7712 2297.8 13.9061 2297.4C11.1149 2302.33 6.36665 2307.14 6.01692 2312.26C5.57975 2318.84 7.20062 2326.79 10.8594 2331.91C11.9691 2333.46 16.7644 2332.22 22.4879 2330.89V2342.9C15.2579 2355.69 8.52557 2367.37 3.6764 2379.84C0.952528 2386.81 2.69446 2399.04 7.23425 2404.92C19.6632 2420.97 20.0264 2435.22 7.31496 2450.28C-1.93948 2461.26 -2.31612 2470.5 8.37761 2481.77C20.6922 2494.7 20.2618 2510.92 8.40451 2523.74C-2.56496 2535.61 2.23712 2543.86 7.59071 2556.1C12.6685 2567.7 17.3832 2589.45 12.0162 2594.06C-5.69238 2609.23 6.1447 2620.47 11.1486 2633.53C16.8519 2648.45 20.5106 2662 6.9854 2676.42C2.34473 2681.37 2.58685 2697.94 7.14009 2703.99C20.0667 2721.22 19.2462 2734.68 6.96523 2751.74C2.61376 2757.81 2.89623 2773.08 7.40912 2779.18C19.5892 2795.64 20.1273 2810.02 7.18717 2824.81C-2.12108 2835.45 -1.89241 2845.59 7.14009 2855.24C20.329 2869.38 18.7283 2882.67 9.05017 2898.35C4.66507 2905.5 1.23501 2921.29 4.41622 2923.86C13.4689 2931.14 23.0865 2927.44 29.7583 2915.46C36.8808 2902.73 62.808 2903.18 69.9977 2914.96C80.1601 2931.63 91.5802 2931.79 102.139 2915.44C110.459 2902.53 135.202 2902.98 143.502 2916.18C152.965 2931.21 166.732 2931.42 175.617 2916.67C184.239 2902.33 207.752 2902.58 216.966 2917.12C224.788 2929.43 240.761 2930.72 247.587 2919.57C258.281 2902.14 278.976 2901.25 290.248 2917.72C299.772 2931.64 313.734 2930.57 322.686 2915.24C329.64 2903.31 354.653 2903.19 361.883 2915.06ZM14.6459 2016.11C17.1949 2012.67 20.0465 2009.41 22.4879 2005.91V2022.25C19.8381 2020.17 17.2352 2018.14 14.6459 2016.11ZM22.4879 2511.88V2532.1C15.036 2526.5 19.3336 2519 22.4879 2511.88Z" fill="white"/>
</svg>
