<svg width="640" height="2910" viewBox="0 0 640 2910" fill="none" xmlns="http://www.w3.org/2000/svg">
<path fill-rule="evenodd" clip-rule="evenodd" d="M236.331 1480.39C243.113 1497.05 251.467 1496.87 259.053 1479.9C264.516 1467.69 280.526 1469.18 285.195 1482.36C289.877 1495.55 299.993 1495.84 305.667 1482.97C312.532 1467.4 326.487 1467.73 333.242 1483.63C338.205 1495.32 348.079 1495.35 353.323 1483.69C360.456 1467.83 374.3 1467.39 381.047 1482.83C386.735 1495.84 396.011 1495.62 401.431 1482.33C407.317 1467.89 422.189 1467.92 428.905 1482.38C435.577 1496.73 444.018 1496.12 449.873 1480.9C451.889 1475.62 455.473 1472.32 459.404 1470.99H467.205C470.605 1472.16 473.67 1474.89 475.559 1479.3C483.228 1497.24 490.721 1497.15 498.693 1479.04C503.138 1468.93 519.921 1469.42 524.155 1479.78C531.134 1496.84 538.746 1496.92 546.366 1480C551.549 1468.49 568.077 1468.81 572.729 1480.52C579.168 1496.73 586.718 1496.73 593.741 1480.54C598.665 1469.19 614.819 1469.57 620.582 1479.43C624.491 1486.13 630.482 1489.92 635.538 1495C637.022 1492.78 638.494 1490.57 639.969 1488.35C638.16 1480.58 637.422 1471.58 634.334 1465.31C627.715 1451.93 628.549 1435.17 634.773 1421.25C637.681 1414.73 636.618 1402.77 635.682 1393.69C634.76 1384.89 628.308 1373.83 630.126 1368.59C638.45 1344.69 637.738 1323.62 630.232 1299.19C627.552 1290.46 634.461 1275.08 636.315 1262.5C637.066 1257.46 637.347 1249.98 635.516 1246.71C627.447 1232.29 627.93 1217 634.562 1200.93C637.422 1193.98 637.272 1179.46 634.356 1172.45C628.356 1157.98 628.462 1143.04 634.593 1128.4C637.461 1121.55 637.281 1106.98 634.365 1100.01C628.097 1085.02 628.005 1068.66 634.163 1054.69C637.084 1048.06 637.352 1033.66 634.571 1027.05C628.123 1011.69 628.207 996.522 635.169 980.419C637.879 974.143 637.716 959.998 634.861 953.878C627.715 938.574 627.561 923.739 634.892 907.486C637.773 901.136 638.955 886.191 636.306 881.854C625.883 864.795 626.336 850.603 636.016 833.794C638.52 829.45 639.715 819.657 638.331 814.329C634.33 798.897 629.099 784.224 623.85 768.324V763.085C629.041 761.899 633.565 760.862 640 759.391C638.182 749.781 637.857 740.346 634.861 733.833C627.614 718.055 628.088 703.883 635.256 687.38C637.988 681.111 638.656 667.556 636.065 661.836C627.324 642.54 627.205 633.452 636.082 613.207C638.678 607.284 639.091 592.875 636.394 588.693C625.405 571.688 627.267 557.686 635.819 540.207C638.524 534.663 638.045 520.667 635.314 514.391C627.487 496.424 627.421 485.587 636.192 468.142C640.769 459.046 641.568 447.87 634.413 440.361C629.643 445.356 626.257 450.968 623.845 457.122V435.813C628.918 419.425 634.185 403.139 638.432 386.249C639.675 381.322 637.769 372.376 635.34 367.74C626.793 351.406 626.819 337.675 636.157 320.792C637.87 317.688 637.962 312.443 639.034 307.034C633.174 311.236 628.488 314.598 623.85 317.925V296.861C627.899 278.589 631.984 260.188 636.429 240.174C632.103 233.539 626.793 195.151 630.24 183.297C630.912 180.986 632.428 179.143 633.745 177.408C641.616 166.964 641.252 156.974 633.987 145.811C626.902 134.94 627.249 113.421 634.448 102.794C641.445 92.4518 640.685 83.0989 634.325 73.0614C627.416 62.1632 627.82 41.6884 633.829 29.6651C636.495 24.3448 637.817 16.632 638.204 9.80026C638.34 7.4078 633.104 1.34872 631.637 2.23657C627.609 4.64258 623.195 8.72941 620.894 14.1446C614.789 28.4655 599.02 29.4414 592.937 14.8902C585 -4.08005 580.345 -2.59578 572.021 14.8224C568.696 21.7964 559.126 22.7317 552.217 24.0398C549.397 24.5684 545.62 19.5327 543.094 15.7238C540.525 11.8403 537.92 1.8977 537.147 2.32468C532.588 4.8798 528.609 9.76637 524.37 13.7176C520.364 17.4453 516.249 23.9381 512.234 23.8568C507.618 23.7483 501.262 19.5937 498.82 13.9481C491.968 -1.87059 483.544 -3.19898 476.424 12.6942C468.422 30.5801 456.409 29.5702 449.149 11.3049C447.348 6.78427 443.14 3.36164 439.626 2.1078C437.505 1.33517 432.344 5.84898 432.392 7.75345C433.016 31.5086 418.267 22.2234 412.096 30.9325C408.331 24.0262 404.73 16.9098 400.768 10.3018C398.783 6.99437 396.389 2.94143 393.784 2.06714C385.079 -0.881073 380.77 6.90627 380.331 19.1939C380.173 23.6806 380.305 27.8487 381.17 31.2239H373.369C373.497 31.0206 373.606 30.8105 373.686 30.6004C366.97 24.6159 360.197 18.7737 353.569 12.5519C350.042 9.23772 346.765 2.37212 343.383 2.39246C339.984 2.40601 336.69 9.20384 333.176 12.5994C328.792 16.8353 324.488 22.5013 319.665 24.1482C313.494 26.256 307.191 25.7409 304.89 12.0368C304.139 7.51624 298.297 2.31113 294.819 2.36535C291.476 2.41279 286.368 7.82123 285.186 12.6875C280.759 30.9596 270.354 22.2166 262.856 25.0496C260.814 25.8155 256.237 16.7675 254.388 11.027C250.883 0.128774 243.811 -2.27724 238.352 6.50639C233.253 14.7139 227.846 22.4674 223.493 29.0348C224.745 29.7939 226.243 30.5258 227.942 31.2239H200.271C199.959 20.7866 199.678 11.2845 199.388 1.8367C198.176 1.21995 196.955 0.609974 195.734 0C193.314 4.35793 191.394 9.96969 188.373 12.7688C183.137 17.6215 177.366 22.752 171.546 23.7077C168.599 24.1889 165.164 15.5543 161.738 11.454C158.76 7.87545 155.365 1.98581 152.409 2.32468C148.733 2.76522 143.102 7.58402 142.237 12.2334C140.005 24.3244 135.06 24.8056 128.735 24.7446C122.151 24.6836 117.03 24.8802 113.867 12.1792C110.037 -3.21253 99.6538 -2.88043 94.3963 11.1219C87.1272 30.4648 73.7133 30.3767 65.9698 10.9457C60.7825 -2.08747 51.102 -2.38568 46.477 10.3492C39.221 30.2818 27.4367 30.0446 17.989 11.7793C15.1296 6.26241 8.30408 5.65921 3.29254 2.7991C3.33646 11.0609 1.18427 22.0879 3.824 27.049C12.771 43.8843 13.3068 57.8527 4.25444 75.2234C1.40388 80.6996 1.20184 95.4542 3.96455 100.788C12.8676 117.888 12.9291 131.66 4.04801 148.868C1.21062 154.378 1.19305 169.593 4.09193 174.792C13.0345 190.82 13.6143 204.24 4.41256 219.76C-1.31492 229.418 -1.2095 239.388 4.77712 249.812C12.973 264.092 12.973 278.006 4.77712 293.953C1.76404 299.836 1.57518 315.187 4.46966 321.158C12.5646 337.824 12.9511 350.898 4.6146 367.672C1.71573 373.514 1.88702 388.106 4.68049 394.552C11.8881 411.245 11.8179 423.2 4.42574 441.039C1.64984 447.721 1.562 462.571 4.5619 468.406C12.6524 484.116 13.1883 497.475 4.80347 512.074C-0.919616 522.05 -1.59602 532.155 4.28519 542.26C13.1355 557.469 13.869 571.438 3.98651 587.053C-1.67947 596.026 -1.39398 606.884 5.4096 616.61C9.38018 622.289 12.3186 623.143 14.686 621.273V643.286C14.3434 641.673 14.0052 640.033 13.6758 638.304C10.1576 648.85 9.53391 653.635 7.64525 655.926C-2.25046 667.854 -1.67947 677.824 6.70531 692.457C13.0345 703.504 13.5308 719.804 5.26026 731.956C-1.34127 741.668 -1.58724 752.153 4.14463 761.445C13.8559 777.175 12.6568 791.001 4.45648 807.172C1.70255 812.615 0.736258 823.276 2.10664 830.033C5.33054 845.974 10.3465 861.047 14.686 876.438V877.231C12.8149 876.845 10.9526 876.459 9.08151 876.066C7.25873 880.891 4.15781 885.595 3.92941 890.603C3.64392 897.042 4.70245 904.823 7.09183 909.831C7.81654 911.349 10.9482 910.136 14.686 908.835V920.587C9.96874 933.098 5.56772 944.532 2.40092 956.725C0.62206 963.549 1.76404 975.519 4.72441 981.266C12.8413 996.963 13.0784 1010.91 4.77712 1025.65C-1.2666 1036.39 -1.51257 1045.44 5.47109 1056.45C13.5133 1069.1 13.2322 1084.98 5.48866 1097.52C-1.67508 1109.13 1.46098 1117.21 4.9572 1129.18C8.27334 1140.53 11.3523 1161.81 7.84729 1166.32C-3.71747 1181.16 4.01287 1192.16 7.28069 1204.94C11.0053 1219.54 13.3947 1232.8 4.5619 1246.9C1.53565 1251.74 1.68937 1267.96 4.66292 1273.88C13.1048 1290.74 12.5689 1303.9 4.54872 1320.6C1.70694 1326.53 1.89142 1341.48 4.843 1347.43C12.7929 1363.55 13.1443 1377.61 4.69366 1392.09C-1.38519 1402.5 -1.23586 1412.42 4.66292 1421.86C13.2761 1435.7 12.2307 1448.7 5.91471 1464.04C3.04658 1471.03 0.806534 1486.48 2.88406 1489C8.79601 1496.12 15.0769 1492.5 19.434 1480.78C24.0854 1468.32 41.0175 1468.76 45.7172 1480.29C52.3494 1496.59 59.8075 1496.76 66.7033 1480.75C72.1365 1468.13 88.2955 1468.57 93.7155 1481.49C99.8954 1496.19 108.891 1496.4 114.688 1481.97C120.319 1467.93 135.679 1468.18 141.692 1482.41C146.8 1494.45 157.232 1495.7 161.69 1484.81C168.673 1467.75 182.188 1466.87 189.55 1482.98C195.769 1496.61 204.887 1495.57 210.734 1480.56C215.275 1468.89 231.61 1468.78 236.331 1480.39ZM9.56466 600.845C11.2337 597.484 13.096 594.291 14.686 590.869V606.864C12.9555 604.83 11.2601 602.831 9.56466 600.845ZM14.686 1085.92V1105.7C9.8194 1100.22 12.626 1092.88 14.686 1085.92Z" fill="#E5AC49"/>
<path fill-rule="evenodd" clip-rule="evenodd" d="M236.331 2895.54C243.113 2912.02 251.467 2911.85 259.053 2895.05C264.516 2882.98 280.526 2884.46 285.191 2897.49C289.877 2910.54 299.993 2910.82 305.667 2898.09C312.532 2882.68 326.487 2883.02 333.237 2898.74C338.205 2910.31 348.079 2910.34 353.323 2898.8C360.452 2883.11 374.3 2882.68 381.047 2897.95C386.735 2910.82 396.011 2910.6 401.431 2897.46C407.317 2883.18 422.189 2883.21 428.905 2897.51C435.577 2911.7 444.018 2911.11 449.869 2896.04C451.889 2890.82 455.473 2887.55 459.4 2886.24H467.205C470.605 2887.4 473.67 2890.1 475.559 2894.46C483.228 2912.21 490.717 2912.12 498.693 2894.2C503.138 2884.21 519.921 2884.7 524.155 2894.94C531.13 2911.82 538.746 2911.9 546.366 2895.16C551.549 2883.76 568.077 2884.09 572.729 2895.67C579.168 2911.7 586.718 2911.7 593.741 2895.68C598.66 2884.46 614.819 2884.84 620.582 2894.59C624.491 2901.22 630.482 2904.96 635.537 2910C637.022 2907.8 638.493 2905.61 639.969 2903.42C638.16 2895.73 637.422 2886.82 634.334 2880.63C627.715 2867.38 628.549 2850.8 634.773 2837.03C637.681 2830.58 636.618 2818.75 635.678 2809.77C634.76 2801.06 628.308 2790.12 630.126 2784.95C638.45 2761.29 637.734 2740.44 630.232 2716.28C627.552 2707.64 634.461 2692.43 636.315 2679.98C637.066 2675 637.347 2667.6 635.516 2664.36C627.443 2650.1 627.93 2634.97 634.562 2619.07C637.422 2612.21 637.272 2597.83 634.356 2590.9C628.356 2576.58 628.457 2561.8 634.593 2547.32C637.461 2540.54 637.281 2526.13 634.365 2519.24C628.097 2504.4 628.005 2488.22 634.163 2474.4C637.084 2467.84 637.351 2453.59 634.571 2447.05C628.123 2431.86 628.207 2416.85 635.169 2400.92C637.879 2394.72 637.712 2380.72 634.861 2374.66C627.715 2359.53 627.561 2344.85 634.892 2328.77C637.773 2322.48 638.955 2307.7 636.306 2303.41C625.883 2286.53 626.336 2272.49 636.016 2255.87C638.515 2251.57 639.714 2241.88 638.331 2236.61C634.33 2221.34 629.098 2206.82 623.85 2191.09V2185.92C629.041 2184.74 633.565 2183.72 640 2182.26C638.182 2172.75 637.857 2163.42 634.861 2156.97C627.614 2141.36 628.088 2127.34 635.256 2111.02C637.988 2104.81 638.656 2091.4 636.065 2085.75C627.324 2066.66 627.205 2057.67 636.082 2037.64C638.678 2031.78 639.091 2017.52 636.394 2013.39C625.405 1996.56 627.267 1982.71 635.819 1965.43C638.52 1959.93 638.045 1946.09 635.313 1939.88C627.487 1922.1 627.421 1911.38 636.188 1894.12C640.769 1885.13 641.564 1874.08 634.409 1866.64C629.643 1871.58 626.257 1877.13 623.845 1883.23V1862.15C628.918 1845.93 634.185 1829.82 638.432 1813.11C639.675 1808.23 637.769 1799.38 635.34 1794.8C626.793 1778.64 626.819 1765.06 636.157 1748.35C637.87 1745.28 637.958 1740.09 639.029 1734.74C633.174 1738.9 628.488 1742.22 623.85 1745.52V1724.68C627.899 1706.6 631.984 1688.4 636.425 1668.6C632.098 1662.03 626.793 1624.06 630.24 1612.33C630.912 1610.04 632.428 1608.22 633.745 1606.5C641.616 1596.18 641.252 1586.29 633.987 1575.24C626.902 1564.49 627.249 1543.2 634.448 1532.69C641.445 1522.46 640.685 1513.2 634.325 1503.28C627.416 1492.5 627.82 1472.24 633.829 1460.35C636.495 1455.08 637.817 1447.45 638.204 1440.69C638.34 1438.32 633.104 1432.33 631.637 1433.21C627.609 1435.59 623.195 1439.63 620.894 1444.99C614.789 1459.15 599.02 1460.12 592.937 1445.72C585 1426.96 580.345 1428.43 572.021 1445.66C568.696 1452.56 559.126 1453.48 552.217 1454.78C549.397 1455.3 545.62 1450.32 543.094 1446.56C540.525 1442.71 537.92 1432.87 537.147 1433.3C532.588 1435.82 528.608 1440.66 524.37 1444.56C520.364 1448.25 516.249 1454.68 512.234 1454.59C507.618 1454.49 501.262 1450.38 498.82 1444.79C491.968 1429.14 483.54 1427.84 476.424 1443.56C468.417 1461.25 456.409 1460.25 449.148 1442.18C447.348 1437.7 443.14 1434.32 439.626 1433.08C437.505 1432.31 432.344 1436.78 432.388 1438.66C433.016 1462.16 418.262 1452.98 412.091 1461.59C408.331 1454.76 404.73 1447.73 400.768 1441.18C398.778 1437.91 396.389 1433.9 393.784 1433.04C385.079 1430.12 380.77 1437.83 380.331 1449.98C380.173 1454.42 380.305 1458.54 381.17 1461.89H373.369C373.497 1461.68 373.606 1461.48 373.685 1461.27C366.97 1455.35 360.193 1449.57 353.569 1443.41C350.042 1440.13 346.765 1433.34 343.383 1433.36C339.984 1433.37 336.69 1440.1 333.176 1443.46C328.792 1447.65 324.488 1453.25 319.665 1454.88C313.494 1456.97 307.191 1456.46 304.89 1442.9C304.139 1438.43 298.293 1433.28 294.818 1433.33C291.476 1433.38 286.368 1438.73 285.182 1443.55C280.759 1461.62 270.354 1452.97 262.852 1455.77C260.814 1456.53 256.237 1447.58 254.388 1441.9C250.883 1431.12 243.807 1428.74 238.352 1437.44C233.248 1445.55 227.846 1453.22 223.489 1459.72C224.745 1460.48 226.243 1461.2 227.942 1461.88H200.271C199.959 1451.56 199.678 1442.16 199.388 1432.81C198.176 1432.2 196.955 1431.6 195.734 1431C193.314 1435.3 191.39 1440.86 188.373 1443.63C183.137 1448.43 177.366 1453.5 171.546 1454.45C168.599 1454.92 165.164 1446.38 161.738 1442.32C158.76 1438.78 155.365 1432.96 152.409 1433.29C148.733 1433.73 143.102 1438.5 142.237 1443.1C140.005 1455.06 135.06 1455.53 128.73 1455.48C122.151 1455.41 117.03 1455.61 113.867 1443.04C110.037 1427.82 99.6494 1428.14 94.3963 1442C87.1272 1461.13 73.7089 1461.04 65.9654 1441.82C60.7825 1428.93 51.0976 1428.63 46.4726 1441.24C39.221 1460.95 27.4367 1460.72 17.989 1442.65C15.1296 1437.19 8.30408 1436.59 3.29254 1433.76C3.33646 1441.94 1.18427 1452.84 3.81961 1457.75C12.771 1474.41 13.3068 1488.23 4.25444 1505.41C1.40388 1510.83 1.20184 1525.43 3.96455 1530.71C12.8676 1547.63 12.9291 1561.25 4.04361 1578.27C1.20623 1583.72 1.19305 1598.77 4.08753 1603.91C13.0301 1619.77 13.6099 1633.05 4.41256 1648.41C-1.31492 1657.96 -1.2095 1667.82 4.77712 1678.13C12.973 1692.26 12.973 1706.02 4.77712 1721.8C1.75965 1727.62 1.57518 1742.81 4.46966 1748.71C12.5646 1765.2 12.9511 1778.14 4.61021 1794.73C1.71573 1800.51 1.88702 1814.95 4.68049 1821.32C11.8881 1837.84 11.8179 1849.66 4.42574 1867.31C1.64984 1873.92 1.562 1888.62 4.5575 1894.39C12.6524 1909.93 13.1883 1923.14 4.80347 1937.59C-0.919615 1947.46 -1.60041 1957.45 4.28519 1967.45C13.1355 1982.5 13.8647 1996.32 3.98651 2011.76C-1.67947 2020.64 -1.39398 2031.38 5.4096 2041C9.38018 2046.62 12.3142 2047.47 14.686 2045.62V2067.39C14.3434 2065.8 14.0052 2064.18 13.6758 2062.47C10.1576 2072.9 9.53391 2077.63 7.64085 2079.9C-2.25046 2091.7 -1.67947 2101.56 6.70531 2116.04C13.0345 2126.97 13.5308 2143.1 5.26026 2155.12C-1.34127 2164.72 -1.58724 2175.1 4.14463 2184.29C13.8515 2199.85 12.6568 2213.54 4.45648 2229.53C1.70255 2234.91 0.731865 2245.46 2.10664 2252.15C5.33054 2267.91 10.3465 2282.82 14.686 2298.05V2298.84C12.8149 2298.45 10.9526 2298.07 9.08151 2297.68C7.25873 2302.46 4.15781 2307.11 3.92941 2312.07C3.64392 2318.43 4.70245 2326.13 7.09183 2331.09C7.81655 2332.59 10.9482 2331.39 14.686 2330.1V2341.73C9.96435 2354.11 5.56772 2365.42 2.40092 2377.48C0.622059 2384.23 1.75965 2396.07 4.72441 2401.76C12.8413 2417.29 13.0784 2431.08 4.77712 2445.67C-1.2666 2456.29 -1.51257 2465.24 5.47109 2476.14C13.5133 2488.66 13.2322 2504.36 5.48866 2516.77C-1.67508 2528.25 1.46098 2536.25 4.9572 2548.09C8.27334 2559.32 11.3523 2580.37 7.84729 2584.83C-3.71747 2599.51 4.01287 2610.4 7.28069 2623.04C11.0053 2637.48 13.3947 2650.6 4.5619 2664.55C1.53125 2669.34 1.68937 2685.38 4.66292 2691.24C13.1048 2707.92 12.5689 2720.94 4.54872 2737.46C1.70694 2743.33 1.89142 2758.11 4.83861 2764.01C12.7929 2779.95 13.1443 2793.86 4.69366 2808.19C-1.38519 2818.48 -1.23586 2828.29 4.66292 2837.64C13.2761 2851.32 12.2307 2864.19 5.91031 2879.36C3.04658 2886.28 0.806534 2901.57 2.88406 2904.05C8.79601 2911.1 15.0769 2907.52 19.434 2895.93C24.0854 2883.6 41.0175 2884.04 45.7128 2895.44C52.3494 2911.58 59.8074 2911.74 66.7033 2895.91C72.1365 2883.41 88.2955 2883.85 93.7155 2896.62C99.8954 2911.17 108.886 2911.37 114.688 2897.1C120.319 2883.22 135.675 2883.46 141.692 2897.54C146.8 2909.45 157.232 2910.7 161.69 2899.91C168.673 2883.03 182.188 2882.17 189.55 2898.11C195.769 2911.59 204.887 2910.56 210.734 2895.71C215.275 2884.17 231.61 2884.05 236.331 2895.54ZM9.56465 2025.41C11.2293 2022.08 13.0916 2018.93 14.686 2015.55V2031.36C12.9555 2029.35 11.2557 2027.38 9.56465 2025.41ZM14.686 2505.29V2524.86C9.8194 2519.44 12.626 2512.18 14.686 2505.29Z" fill="white"/>
</svg>
