<svg width="480" height="2705" viewBox="0 0 480 2705" fill="none" xmlns="http://www.w3.org/2000/svg">
<path fill-rule="evenodd" clip-rule="evenodd" d="M179.863 1292.24C184.738 1306.79 190.742 1306.63 196.194 1291.82C200.121 1281.16 211.628 1282.47 214.984 1293.97C218.349 1305.48 225.62 1305.73 229.698 1294.5C234.633 1280.9 244.662 1281.2 249.518 1295.07C253.085 1305.28 260.182 1305.31 263.951 1295.13C269.078 1281.28 279.028 1280.9 283.877 1294.37C287.966 1305.73 294.633 1305.54 298.529 1293.94C302.759 1281.34 313.448 1281.36 318.275 1293.98C323.071 1306.51 329.138 1305.98 333.346 1292.69C334.795 1288.09 337.371 1285.2 340.197 1284.04H345.804C348.247 1285.06 350.451 1287.45 351.808 1291.3C357.32 1306.95 362.706 1306.88 368.436 1291.07C371.63 1282.25 383.693 1282.67 386.736 1291.72C391.753 1306.61 397.224 1306.67 402.701 1291.91C406.426 1281.86 418.305 1282.14 421.649 1292.36C426.277 1306.51 431.703 1306.51 436.751 1292.37C440.29 1282.47 451.901 1282.8 456.043 1291.41C458.853 1297.26 463.159 1300.56 466.793 1305C467.86 1303.07 468.917 1301.13 469.978 1299.2C468.677 1292.42 468.147 1284.55 465.928 1279.09C461.17 1267.4 461.77 1252.77 466.243 1240.62C468.333 1234.93 467.569 1224.49 466.897 1216.57C466.234 1208.88 461.596 1199.23 462.903 1194.66C468.886 1173.79 468.374 1155.4 462.979 1134.08C461.053 1126.46 466.019 1113.03 467.351 1102.05C467.891 1097.65 468.093 1091.12 466.777 1088.27C460.977 1075.68 461.325 1062.33 466.092 1048.3C468.147 1042.24 468.04 1029.56 465.943 1023.45C461.631 1010.81 461.707 997.769 466.114 984.99C468.175 979.015 468.046 966.295 465.95 960.213C461.445 947.127 461.378 932.845 465.804 920.652C467.904 914.866 468.096 902.288 466.098 896.52C461.464 883.114 461.524 869.874 466.527 855.817C468.475 850.339 468.358 837.992 466.306 832.649C461.17 819.291 461.06 806.34 466.328 792.153C468.399 786.61 469.249 773.565 467.345 769.779C459.854 754.888 460.179 742.499 467.137 727.827C468.936 724.035 469.795 715.486 468.8 710.836C465.924 697.365 462.165 684.557 458.392 670.677V666.104C462.123 665.069 465.375 664.164 470 662.88C468.693 654.491 468.459 646.255 466.306 640.57C461.097 626.797 461.438 614.427 466.591 600.021C468.554 594.548 469.034 582.716 467.171 577.723C460.889 560.88 460.804 552.946 467.184 535.275C469.05 530.104 469.346 517.526 467.408 513.876C459.51 499.032 460.848 486.81 466.995 471.552C468.939 466.713 468.595 454.496 466.632 449.017C461.006 433.334 460.959 423.874 467.263 408.646C470.552 400.706 471.127 390.95 465.984 384.395C462.556 388.756 460.122 393.654 458.389 399.026V380.426C462.035 366.12 465.82 351.904 468.873 337.161C469.766 332.86 468.396 325.051 466.651 321.004C460.507 306.746 460.526 294.76 467.238 280.023C468.469 277.313 468.535 272.734 469.305 268.013C465.094 271.681 461.726 274.615 458.392 277.52V259.133C461.303 243.183 464.239 227.121 467.433 209.65C464.324 203.858 460.507 170.349 462.985 160.002C463.468 157.985 464.557 156.375 465.505 154.861C471.162 145.744 470.9 137.024 465.678 127.28C460.586 117.79 460.835 99.0066 466.01 89.7301C471.039 80.7021 470.492 72.5378 465.921 63.776C460.955 54.2628 461.246 36.3902 465.565 25.8949C467.481 21.2508 468.431 14.5182 468.709 8.55474C468.807 6.46634 465.044 1.17731 463.989 1.95233C461.094 4.05256 457.922 7.61999 456.267 12.347C451.879 24.8478 440.546 25.6997 436.174 12.9978C430.469 -3.56151 427.123 -2.26588 421.14 12.9386C418.751 19.0263 411.872 19.8427 406.906 20.9846C404.879 21.446 402.164 17.0503 400.349 13.7254C398.502 10.3355 396.63 1.65652 396.074 2.02924C392.797 4.25962 389.937 8.52516 386.891 11.9743C384.012 15.2281 381.054 20.8958 378.168 20.8248C374.85 20.7302 370.282 17.1036 368.527 12.1754C363.602 -1.63285 357.547 -2.79242 352.43 11.0809C346.678 26.6936 338.044 25.8121 332.825 9.86812C331.531 5.92206 328.507 2.93441 325.981 1.83992C324.456 1.16548 320.747 5.10563 320.782 6.76806C321.23 27.5041 310.629 19.399 306.194 27.0013C303.488 20.9727 300.9 14.7608 298.052 8.99253C296.625 6.10546 294.905 2.5676 293.033 1.80442C286.775 -0.769097 283.679 6.02855 283.363 16.7545C283.249 20.671 283.344 24.3094 283.966 27.2557H278.359C278.451 27.0782 278.53 26.8948 278.586 26.7114C273.759 21.4874 268.892 16.3877 264.128 10.9567C261.593 8.0637 259.238 2.07065 256.807 2.0884C254.363 2.10023 251.996 8.03412 249.47 10.9981C246.32 14.6957 243.226 19.6416 239.759 21.0792C235.324 22.9191 230.794 22.4695 229.14 10.5071C228.6 6.561 224.401 2.0174 221.901 2.06473C219.498 2.10615 215.827 6.82723 214.978 11.075C211.795 27.0249 204.317 19.3931 198.928 21.8661C197.46 22.5346 194.17 14.6365 192.841 9.62556C190.322 0.112408 185.239 -1.98782 181.315 5.67949C177.65 12.8439 173.764 19.612 170.636 25.3447C171.535 26.0074 172.612 26.6463 173.834 27.2557H153.945C153.721 18.1448 153.519 9.85037 153.31 1.60327C152.439 1.0649 151.561 0.532452 150.684 0C148.944 3.80408 147.565 8.70264 145.393 11.146C141.63 15.382 137.482 19.8605 133.299 20.6947C131.18 21.1147 128.712 13.5775 126.249 9.99828C124.109 6.87455 121.669 1.73343 119.544 2.02924C116.902 2.41378 112.854 6.62016 112.233 10.6786C110.629 21.233 107.074 21.6531 102.528 21.5998C97.7959 21.5466 94.115 21.7182 91.842 10.6313C89.0891 -2.80425 81.6262 -2.51436 77.8474 9.70839C72.6227 26.5931 62.9814 26.5161 57.4158 9.55457C53.6874 -1.82217 46.7296 -2.08248 43.4054 9.03395C38.1901 26.4333 29.7201 26.2262 22.9296 10.2823C20.8744 5.46651 15.9686 4.93998 12.3665 2.44337C12.3981 9.65514 10.8512 19.2807 12.7485 23.6113C19.1791 38.307 19.5643 50.5002 13.0579 65.6632C11.009 70.4435 10.8638 83.3229 12.8495 87.9789C19.2486 102.905 19.2928 114.927 12.9095 129.948C10.8701 134.758 10.8575 148.04 12.9411 152.577C19.3686 166.569 19.7853 178.283 13.1715 191.831C9.0549 200.261 9.13067 208.964 13.4336 218.063C19.3244 230.528 19.3244 242.674 13.4336 256.595C11.2679 261.73 11.1322 275.13 13.2126 280.342C19.0308 294.89 19.3086 306.302 13.3167 320.945C11.2332 326.044 11.3563 338.782 13.3641 344.408C18.5446 358.98 18.4941 369.416 13.181 384.987C11.1858 390.82 11.1227 403.783 13.2789 408.876C19.0939 422.59 19.4791 434.251 13.4525 446.994C9.33903 455.703 8.85286 464.523 13.08 473.344C19.4412 486.62 19.9684 498.813 12.8653 512.444C8.79288 520.277 8.99808 529.755 13.8881 538.245C16.742 543.202 18.854 543.948 20.5556 542.315V561.531C20.3093 560.122 20.0662 558.691 19.8295 557.182C17.3008 566.388 16.8525 570.564 15.495 572.564C8.38248 582.977 8.79288 591.679 14.8194 604.452C19.3686 614.095 19.7253 628.324 13.7808 638.931C9.03596 647.409 8.85917 656.561 12.979 664.672C19.9589 678.404 19.0971 690.473 13.2031 704.589C11.2237 709.339 10.5292 718.645 11.5141 724.544C13.8313 738.459 17.4365 751.616 20.5556 765.052V765.744C19.2107 765.407 17.8722 765.069 16.5273 764.726C15.2172 768.939 12.9884 773.044 12.8243 777.416C12.6191 783.037 13.3799 789.828 15.0972 794.2C15.6181 795.526 17.869 794.467 20.5556 793.331V803.589C17.165 814.51 14.0018 824.491 11.7257 835.134C10.4471 841.092 11.2679 851.54 13.3957 856.557C19.2297 870.258 19.4001 882.434 13.4336 895.301C9.08963 904.673 8.91284 912.571 13.9323 922.184C19.7127 933.23 19.5106 947.085 13.945 958.036C8.79604 968.17 11.0501 975.223 13.563 985.67C15.9465 995.58 18.1595 1014.16 15.6402 1018.09C7.32807 1031.05 12.8842 1040.65 15.233 1051.81C17.9101 1064.54 19.6274 1076.12 13.2789 1088.43C11.1037 1092.66 11.2142 1106.82 13.3515 1111.98C19.4191 1126.7 19.0339 1138.19 13.2694 1152.77C11.2269 1157.94 11.3595 1170.99 13.4809 1176.19C19.1949 1190.26 19.4475 1202.53 13.3736 1215.17C9.00439 1224.26 9.11173 1232.91 13.3515 1241.16C19.5422 1253.23 18.7908 1264.58 14.2512 1277.98C12.1897 1284.07 10.5797 1297.56 12.0729 1299.76C16.3221 1305.98 20.8365 1302.82 23.9682 1292.59C27.3114 1281.71 39.4813 1282.09 42.8592 1292.16C47.6262 1306.39 52.9866 1306.54 57.943 1292.56C61.8481 1281.55 73.4624 1281.93 77.358 1293.2C81.7998 1306.04 88.2652 1306.22 92.4323 1293.62C96.4795 1281.37 107.519 1281.59 111.841 1294.01C115.513 1304.52 123.01 1305.62 126.215 1296.1C131.234 1281.21 140.948 1280.44 146.239 1294.51C150.709 1306.4 157.263 1305.5 161.465 1292.4C164.729 1282.21 176.47 1282.11 179.863 1292.24ZM16.8746 524.484C18.0742 521.549 19.4128 518.763 20.5556 515.775V529.737C19.3117 527.962 18.0932 526.217 16.8746 524.484ZM20.5556 947.908V965.177C17.0577 960.397 19.075 953.99 20.5556 947.908Z" fill="#E5AC49"/>
<path fill-rule="evenodd" clip-rule="evenodd" d="M177.249 2690.82C182.335 2706.98 188.6 2706.81 194.289 2690.35C198.387 2678.51 210.395 2679.96 213.893 2692.73C217.408 2705.53 224.994 2705.81 229.25 2693.33C234.399 2678.22 244.865 2678.55 249.928 2693.96C253.654 2705.3 261.059 2705.34 264.992 2694.02C270.339 2678.64 280.725 2678.21 285.785 2693.19C290.051 2705.81 297.008 2705.59 301.073 2692.71C305.488 2678.71 316.642 2678.73 321.679 2692.75C326.682 2706.67 333.014 2706.09 337.402 2691.31C338.917 2686.2 341.605 2682.99 344.55 2681.71H350.404C352.953 2682.85 355.253 2685.49 356.669 2689.77C362.421 2707.17 368.038 2707.08 374.02 2689.51C377.353 2679.71 389.94 2680.19 393.116 2690.24C398.347 2706.78 404.059 2706.86 409.775 2690.45C413.662 2679.28 426.058 2679.59 429.546 2690.95C434.376 2706.67 440.038 2706.67 445.306 2690.97C448.995 2679.96 461.114 2680.33 465.436 2689.89C468.368 2696.4 472.862 2700.06 476.653 2705C477.767 2702.84 478.87 2700.69 479.977 2698.55C478.62 2691.01 478.066 2682.28 475.751 2676.2C470.786 2663.22 471.412 2646.96 476.08 2633.46C478.261 2627.14 477.464 2615.54 476.759 2606.74C476.07 2598.19 471.231 2587.47 472.595 2582.4C478.837 2559.21 478.3 2538.77 472.674 2515.08C470.664 2506.61 475.846 2491.7 477.236 2479.49C477.799 2474.61 478.01 2467.36 476.637 2464.18C470.582 2450.19 470.948 2435.36 475.922 2419.78C478.066 2413.05 477.954 2398.95 475.767 2392.15C471.267 2378.11 471.343 2363.63 475.945 2349.43C478.096 2342.79 477.961 2328.65 475.774 2321.9C471.073 2307.36 471.004 2291.49 475.622 2277.94C477.813 2271.51 478.014 2257.54 475.928 2251.13C471.093 2236.23 471.155 2221.52 476.376 2205.9C478.409 2199.82 478.284 2186.1 476.146 2180.16C470.786 2165.32 470.671 2150.93 476.169 2135.16C478.33 2129 479.216 2114.51 477.23 2110.3C469.413 2093.76 469.752 2079.99 477.012 2063.7C478.887 2059.48 479.786 2049.98 478.748 2044.81C475.747 2029.84 471.824 2015.61 467.887 2000.19V1995.12C471.781 1993.96 475.174 1992.96 480 1991.53C478.636 1982.21 478.392 1973.06 476.146 1966.74C470.71 1951.43 471.066 1937.69 476.442 1921.69C478.491 1915.6 478.992 1902.46 477.048 1896.91C470.493 1878.19 470.404 1869.38 477.062 1849.74C479.008 1844 479.318 1830.02 477.295 1825.97C469.053 1809.47 470.45 1795.89 476.864 1778.95C478.89 1773.56 478.534 1759.99 476.485 1753.9C470.615 1736.48 470.565 1725.96 477.141 1709.04C480.576 1700.23 481.173 1689.39 475.807 1682.1C472.232 1686.94 469.693 1692.39 467.884 1698.36V1677.7C471.689 1661.79 475.639 1646 478.824 1629.62C479.756 1624.84 478.327 1616.16 476.505 1611.66C470.094 1595.82 470.114 1582.51 477.118 1566.13C478.402 1563.12 478.468 1558.03 479.272 1552.79C474.881 1556.86 471.366 1560.12 467.887 1563.36V1542.92C470.925 1525.2 473.988 1507.35 477.319 1487.94C474.074 1481.5 470.094 1444.28 472.68 1432.77C473.184 1430.53 474.321 1428.74 475.309 1427.06C481.212 1416.94 480.939 1407.24 475.49 1396.42C470.177 1385.87 470.437 1365 475.836 1354.69C481.084 1344.66 480.514 1335.59 475.744 1325.86C470.562 1315.29 470.865 1295.43 475.372 1283.77C477.371 1278.61 478.363 1271.12 478.653 1264.5C478.755 1262.18 474.828 1256.3 473.728 1257.16C470.707 1259.5 467.396 1263.46 465.67 1268.71C461.091 1282.6 449.265 1283.55 444.703 1269.44C438.75 1251.04 435.258 1252.48 429.016 1269.37C426.522 1276.13 419.344 1277.04 414.163 1278.31C412.048 1278.82 409.215 1273.94 407.321 1270.25C405.393 1266.48 403.44 1256.83 402.86 1257.25C399.441 1259.73 396.456 1264.47 393.277 1268.3C390.273 1271.91 387.187 1278.22 384.176 1278.13C380.713 1278.03 375.947 1274 374.115 1268.52C368.976 1253.18 362.655 1251.9 357.318 1267.31C351.313 1284.65 342.307 1283.67 336.861 1265.96C335.511 1261.57 332.355 1258.25 329.72 1257.04C328.129 1256.29 324.258 1260.67 324.291 1262.51C324.762 1285.55 313.697 1276.55 309.068 1284.99C306.249 1278.3 303.547 1271.4 300.576 1264.99C299.084 1261.78 297.292 1257.85 295.338 1257C288.809 1254.14 285.578 1261.7 285.248 1273.61C285.13 1277.96 285.228 1282 285.877 1285.28H280.027C280.122 1285.08 280.205 1284.88 280.264 1284.67C275.227 1278.87 270.144 1273.2 265.177 1267.17C262.532 1263.95 260.074 1257.29 257.538 1257.31C254.988 1257.33 252.517 1263.92 249.882 1267.21C246.594 1271.32 243.366 1276.82 239.749 1278.41C235.121 1280.46 230.394 1279.96 228.667 1266.67C228.104 1262.28 223.72 1257.23 221.114 1257.29C218.607 1257.33 214.776 1262.58 213.886 1267.31C210.569 1285.02 202.765 1276.54 197.139 1279.29C195.61 1280.03 192.178 1271.26 190.791 1265.69C188.162 1255.12 182.855 1252.78 178.764 1261.31C174.936 1269.26 170.884 1276.78 167.616 1283.15C168.559 1283.9 169.682 1284.61 170.957 1285.28H150.203C149.97 1275.15 149.759 1265.94 149.541 1256.77C148.632 1256.18 147.716 1255.59 146.801 1255C144.985 1259.22 143.543 1264.67 141.279 1267.38C137.353 1272.08 133.024 1277.06 128.659 1277.99C126.449 1278.45 123.873 1270.08 121.304 1266.1C119.07 1262.63 116.524 1256.92 114.307 1257.25C111.55 1257.68 107.326 1262.35 106.677 1266.86C105.004 1278.59 101.295 1279.05 96.5478 1279C91.6132 1278.93 87.7721 1279.12 85.4003 1266.81C82.5278 1251.88 74.7371 1252.2 70.7972 1265.78C65.3454 1284.54 55.2817 1284.46 49.474 1265.61C45.5869 1252.97 38.3232 1252.68 34.8545 1265.04C29.4158 1284.36 20.5775 1284.14 13.4917 1266.42C11.3472 1261.07 6.22806 1260.48 2.4694 1257.71C2.50235 1265.72 0.8882 1276.42 2.86471 1281.23C9.57824 1297.56 9.98013 1311.1 3.19083 1327.95C1.05291 1333.26 0.901377 1347.57 2.97341 1352.75C9.65071 1369.34 9.69683 1382.7 3.03271 1399.38C0.904671 1404.72 0.894788 1419.48 3.06565 1424.52C9.7726 1440.07 10.2074 1453.09 3.30942 1468.15C-0.986188 1477.51 -0.907127 1487.18 3.58284 1497.29C9.72977 1511.14 9.72977 1524.63 3.58284 1540.1C1.31974 1545.8 1.18138 1560.69 3.35224 1566.48C9.42342 1582.65 9.7133 1595.33 3.45766 1611.6C1.2868 1617.26 1.41527 1631.42 3.51037 1637.67C8.91611 1653.86 8.8634 1665.46 3.3193 1682.76C1.23738 1689.24 1.1715 1703.65 3.41813 1709.3C9.4893 1724.54 9.89119 1737.49 3.6026 1751.65C-0.689712 1761.33 -1.20031 1771.13 3.21389 1780.93C9.85166 1795.68 10.3985 1809.23 2.98989 1824.38C-1.2596 1833.08 -1.04548 1843.61 4.0572 1853.04C7.03514 1858.55 9.23565 1859.38 11.0145 1857.57V1878.92C10.7576 1877.35 10.5039 1875.76 10.2568 1874.09C7.61821 1884.31 7.15043 1888.95 5.73064 1891.18C-1.68785 1902.75 -1.2596 1912.41 5.02898 1926.61C9.77589 1937.32 10.1481 1953.14 3.9452 1964.92C-1.00595 1974.34 -1.19043 1984.51 3.10848 1993.52C10.3886 2008.78 9.49259 2022.19 3.34236 2037.88C1.27691 2043.15 0.548899 2053.49 1.57998 2060.05C3.9979 2075.5 7.75985 2090.12 11.0145 2105.05V2105.82C9.61118 2105.45 8.21445 2105.07 6.81113 2104.69C5.44405 2109.37 3.11836 2113.93 2.94706 2118.79C2.73294 2125.03 3.52684 2132.58 5.31887 2137.44C5.86241 2138.91 8.21116 2137.73 11.0145 2136.47V2147.87C7.47326 2160.01 4.17579 2171.09 1.80069 2182.92C0.466544 2189.54 1.31974 2201.15 3.54331 2206.72C9.63095 2221.95 9.80883 2235.48 3.58284 2249.77C-0.949951 2260.19 -1.13442 2268.96 4.10332 2279.65C10.135 2291.92 9.92413 2307.31 4.11649 2319.48C-1.25631 2330.74 1.09573 2338.57 3.7179 2350.18C6.205 2361.19 8.51422 2381.83 5.88547 2386.21C-2.7881 2400.6 3.00965 2411.27 5.46052 2423.67C8.25398 2437.82 10.046 2450.68 3.42142 2464.36C1.14844 2469.06 1.26703 2484.79 3.49719 2490.53C9.8286 2506.88 9.42671 2519.65 3.41154 2535.84C1.28021 2541.6 1.41856 2556.09 3.62896 2561.88C9.59471 2577.5 9.85825 2591.14 3.52025 2605.18C-1.03889 2615.28 -0.926893 2624.9 3.49719 2634.06C9.95707 2647.48 9.17306 2660.09 4.43274 2674.97C2.28493 2681.75 0.604901 2696.74 2.16305 2699.17C6.59701 2706.08 11.3077 2702.57 14.5755 2691.2C18.064 2679.12 30.7631 2679.55 34.2846 2690.73C39.2621 2706.54 44.8556 2706.7 50.0275 2691.18C54.1023 2678.94 66.2216 2679.36 70.2866 2691.89C74.9215 2706.15 81.6647 2706.35 86.0163 2692.35C90.2395 2678.75 101.756 2678.98 106.269 2692.78C110.1 2704.46 117.924 2705.68 121.267 2695.11C126.505 2678.56 136.641 2677.71 142.162 2693.35C146.827 2706.56 153.666 2705.55 158.05 2690.99C161.456 2679.67 173.707 2679.56 177.249 2690.82ZM7.17349 1837.76C8.42198 1834.49 9.81872 1831.4 11.0145 1828.08V1843.59C9.7166 1841.62 8.44175 1839.69 7.17349 1837.76ZM11.0145 2308.22V2327.41C7.36455 2322.1 9.46953 2314.98 11.0145 2308.22Z" fill="white"/>
</svg>
