<svg width="340" height="2646" viewBox="0 0 340 2646" fill="none" xmlns="http://www.w3.org/2000/svg">
<path fill-rule="evenodd" clip-rule="evenodd" d="M125.551 1292.24C129.154 1306.79 133.592 1306.63 137.622 1291.82C140.524 1281.16 149.03 1282.47 151.51 1293.97C153.997 1305.48 159.371 1305.73 162.386 1294.5C166.033 1280.9 173.446 1281.2 177.035 1295.07C179.671 1305.28 184.917 1305.31 187.703 1295.13C191.492 1281.28 198.847 1280.9 202.431 1294.37C205.453 1305.73 210.381 1305.54 213.26 1293.94C216.387 1281.34 224.288 1281.36 227.856 1293.98C231.4 1306.51 235.885 1305.98 238.995 1292.69C240.066 1288.09 241.97 1285.2 244.059 1284.04H248.203C250.009 1285.06 251.637 1287.45 252.641 1291.3C256.715 1306.95 260.696 1306.88 264.931 1291.07C267.292 1282.25 276.208 1282.67 278.457 1291.72C282.165 1306.61 286.209 1306.67 290.257 1291.91C293.01 1281.86 301.791 1282.14 304.262 1292.36C307.683 1306.51 311.694 1306.51 315.425 1292.37C318.041 1282.47 326.623 1282.8 329.684 1291.41C331.761 1297.26 334.944 1300.56 337.629 1305C338.418 1303.07 339.2 1301.13 339.984 1299.2C339.022 1292.42 338.63 1284.55 336.99 1279.09C333.474 1267.4 333.917 1252.77 337.223 1240.62C338.768 1234.93 338.203 1224.49 337.706 1216.57C337.216 1208.88 333.789 1199.23 334.755 1194.66C339.176 1173.79 338.798 1155.4 334.811 1134.08C333.387 1126.46 337.058 1113.03 338.042 1102.05C338.441 1097.65 338.591 1091.12 337.618 1088.27C333.331 1075.68 333.588 1062.33 337.111 1048.3C338.63 1042.24 338.551 1029.56 337.002 1023.45C333.814 1010.81 333.87 997.769 337.128 984.99C338.651 979.015 338.556 966.295 337.006 960.213C333.677 947.127 333.628 932.845 336.899 920.652C338.451 914.866 338.593 902.288 337.116 896.52C333.691 883.114 333.735 869.874 337.433 855.817C338.873 850.339 338.787 837.992 337.27 832.649C333.474 819.291 333.392 806.34 337.286 792.153C338.817 786.61 339.445 773.565 338.038 769.779C332.501 754.888 332.741 742.499 337.884 727.827C339.214 724.035 339.848 715.486 339.113 710.836C336.988 697.365 334.209 684.557 331.42 670.677V666.104C334.178 665.069 336.582 664.164 340 662.88C339.034 654.491 338.861 646.255 337.27 640.57C333.42 626.797 333.672 614.427 337.48 600.021C338.931 594.548 339.286 582.716 337.909 577.723C333.266 560.88 333.203 552.946 337.919 535.275C339.298 530.104 339.517 517.526 338.084 513.876C332.246 499.032 333.236 486.81 337.779 471.552C339.216 466.713 338.962 454.496 337.51 449.017C333.352 433.334 333.317 423.874 337.977 408.646C340.408 400.706 340.833 390.95 337.032 384.395C334.498 388.756 332.699 393.654 331.418 399.026V380.426C334.113 366.12 336.911 351.904 339.167 337.161C339.827 332.86 338.815 325.051 337.524 321.004C332.984 306.746 332.998 294.76 337.958 280.023C338.868 277.313 338.917 272.734 339.487 268.013C336.374 271.681 333.884 274.615 331.42 277.52V259.133C333.572 243.183 335.742 227.121 338.103 209.65C335.805 203.858 332.984 170.349 334.815 160.002C335.172 157.985 335.977 156.375 336.677 154.861C340.859 145.744 340.665 137.024 336.806 127.28C333.042 117.79 333.226 99.0066 337.051 89.7301C340.768 80.7021 340.364 72.5378 336.985 63.776C333.315 54.2628 333.53 36.3902 336.722 25.8949C338.138 21.2508 338.84 14.5182 339.046 8.55474C339.118 6.46634 336.337 1.17731 335.557 1.95233C333.418 4.05256 331.072 7.61999 329.85 12.347C326.606 24.8478 318.23 25.6997 314.998 12.9978C310.781 -3.56151 308.308 -2.26588 303.886 12.9386C302.12 19.0263 297.036 19.8427 293.365 20.9846C291.867 21.446 289.86 17.0503 288.519 13.7254C287.154 10.3355 285.77 1.65652 285.359 2.02924C282.937 4.25962 280.823 8.52516 278.572 11.9743C276.443 15.2281 274.257 20.8958 272.124 20.8248C269.672 20.7302 266.296 17.1036 264.998 12.1754C261.358 -1.63285 256.883 -2.79242 253.1 11.0809C248.849 26.6936 242.467 25.8121 238.61 9.86812C237.653 5.92206 235.418 2.93441 233.551 1.83992C232.424 1.16548 229.683 5.10563 229.708 6.76806C230.04 27.5041 222.204 19.399 218.926 27.0013C216.926 20.9727 215.013 14.7608 212.908 8.99253C211.853 6.10546 210.582 2.5676 209.198 1.80442C204.573 -0.769097 202.284 6.02855 202.051 16.7545C201.967 20.671 202.037 24.3094 202.496 27.2557H198.352C198.42 27.0782 198.478 26.8948 198.52 26.7114C194.953 21.4874 191.355 16.3877 187.834 10.9567C185.96 8.0637 184.219 2.07065 182.422 2.0884C180.616 2.10023 178.866 8.03412 177 10.9981C174.671 14.6957 172.384 19.6416 169.822 21.0792C166.544 22.9191 163.195 22.4695 161.973 10.5071C161.574 6.561 158.47 2.0174 156.622 2.06473C154.847 2.10615 152.133 6.82723 151.505 11.075C149.153 27.0249 143.625 19.3931 139.642 21.8661C138.557 22.5346 136.126 14.6365 135.144 9.62556C133.282 0.112408 129.525 -1.98782 126.624 5.67949C123.915 12.8439 121.043 19.612 118.731 25.3447C119.396 26.0074 120.191 26.6463 121.094 27.2557H106.394C106.228 18.1448 106.079 9.85037 105.925 1.60327C105.281 1.0649 104.632 0.532452 103.984 0C102.698 3.80408 101.678 8.70264 100.073 11.146C97.2916 15.382 94.2255 19.8605 91.1338 20.6947C89.5681 21.1147 87.7434 13.5775 85.9234 9.99828C84.3413 6.87455 82.5376 1.73343 80.9673 2.02924C79.0142 2.41379 76.0228 6.62016 75.5632 10.6786C74.3778 21.233 71.7504 21.6531 68.3904 21.5998C64.8927 21.5466 62.1719 21.7182 60.4919 10.6313C58.4572 -2.80425 52.9411 -2.51436 50.148 9.70839C46.2863 26.5931 39.1602 26.5161 35.0464 9.55457C32.2907 -1.82217 27.148 -2.08248 24.6909 9.03395C20.8362 26.4333 14.5757 26.2263 9.55664 10.2823C8.03761 5.46652 4.41154 4.93998 1.74916 2.44337C1.7725 9.65514 0.629142 19.2807 2.0315 23.6113C6.78459 38.307 7.06926 50.5002 2.26017 65.6632C0.74581 70.4435 0.638475 83.3229 2.10617 87.9789C6.83592 102.905 6.86859 114.927 2.1505 129.948C0.643142 134.758 0.633809 148.04 2.17384 152.577C6.92459 166.569 7.23259 178.283 2.34417 191.831C-0.69855 200.261 -0.642549 208.964 2.53784 218.063C6.89192 230.528 6.89192 242.674 2.53784 256.595C0.937147 261.73 0.836812 275.13 2.37451 280.342C6.67492 294.89 6.88026 306.302 2.45151 320.945C0.91148 326.044 1.00248 338.782 2.48651 344.408C6.31558 358.98 6.27824 369.416 2.35117 384.987C0.876479 390.82 0.829812 403.782 2.42351 408.876C6.72159 422.59 7.00626 434.251 2.55184 446.994C-0.488546 455.703 -0.847886 464.523 2.2765 473.344C6.97826 486.62 7.36793 498.813 2.11784 512.444C-0.892219 520.277 -0.740551 529.755 2.87385 538.245C4.98322 543.202 6.54425 543.948 7.80194 542.315V561.531C7.61994 560.122 7.44027 558.691 7.26526 557.182C5.39623 566.388 5.06489 570.564 4.06154 572.564C-1.19556 582.976 -0.892219 591.679 3.5622 604.452C6.92459 614.095 7.18826 628.324 2.79451 638.931C-0.71255 647.409 -0.843219 656.561 2.20184 664.672C7.36093 678.404 6.72392 690.473 2.36751 704.589C0.90448 709.339 0.391137 718.645 1.11915 724.544C2.83185 738.459 5.49656 751.616 7.80194 765.052V765.744C6.80792 765.407 5.81857 765.069 4.82455 764.726C3.8562 768.939 2.20884 773.044 2.0875 777.416C1.93583 783.037 2.49818 789.828 3.76753 794.2C4.15254 795.526 5.81624 794.467 7.80194 793.331V803.589C5.29589 814.51 2.95785 824.491 1.27549 835.134C0.33047 841.092 0.937148 851.54 2.50984 856.557C6.82192 870.258 6.94792 882.434 2.53784 895.301C-0.672882 904.673 -0.803551 912.571 2.90652 922.184C7.17893 933.23 7.02959 947.085 2.91585 958.036C-0.889886 968.17 0.776144 975.223 2.63351 985.67C4.39521 995.58 6.03091 1014.16 4.16887 1018.09C-1.97491 1031.05 2.13184 1040.65 3.86787 1051.81C5.84657 1064.54 7.11593 1076.12 2.42351 1088.43C0.815812 1092.66 0.89748 1106.82 2.47718 1111.98C6.96192 1126.7 6.67725 1138.19 2.41651 1152.77C0.906814 1157.94 1.00481 1170.99 2.57284 1176.19C6.79625 1190.26 6.98292 1202.53 2.49351 1215.17C-0.735883 1224.26 -0.656549 1232.91 2.47718 1241.16C7.05293 1253.23 6.49758 1264.58 3.14219 1277.98C1.61849 1284.07 0.428471 1297.56 1.53216 1299.76C4.67288 1305.98 8.00961 1302.82 10.3243 1292.59C12.7954 1281.71 21.7905 1282.09 24.2872 1292.16C27.8106 1306.39 31.7727 1306.54 35.4361 1292.56C38.3225 1281.55 46.907 1281.93 49.7864 1293.2C53.0694 1306.04 57.8482 1306.22 60.9282 1293.62C63.9196 1281.37 72.0794 1281.59 75.2738 1294.01C77.9876 1304.52 83.5293 1305.62 85.8977 1296.1C89.6078 1281.21 96.7876 1280.44 100.698 1294.51C104.002 1306.4 108.846 1305.5 111.952 1292.4C114.365 1282.21 123.043 1282.11 125.551 1292.24ZM5.08122 524.484C5.96791 521.549 6.95726 518.763 7.80194 515.775V529.737C6.88259 527.962 5.98191 526.217 5.08122 524.484ZM7.80194 947.908V965.177C5.21656 960.397 6.70759 953.99 7.80194 947.908Z" fill="#E5AC49"/>
<path fill-rule="evenodd" clip-rule="evenodd" d="M125.551 2632.4C129.154 2647.9 133.592 2647.74 137.622 2631.94C140.524 2620.59 149.03 2621.98 151.508 2634.23C153.997 2646.5 159.371 2646.78 162.386 2634.8C166.033 2620.31 173.446 2620.62 177.032 2635.41C179.671 2646.29 184.917 2646.32 187.703 2635.47C191.49 2620.71 198.847 2620.3 202.431 2634.67C205.453 2646.78 210.381 2646.57 213.26 2634.21C216.387 2620.78 224.288 2620.8 227.856 2634.25C231.4 2647.6 235.885 2647.05 238.993 2632.87C240.066 2627.96 241.97 2624.89 244.056 2623.66H248.203C250.009 2624.75 251.637 2627.28 252.641 2631.39C256.715 2648.08 260.693 2647.99 264.931 2631.14C267.292 2621.74 276.208 2622.2 278.457 2631.84C282.163 2647.71 286.209 2647.78 290.257 2632.04C293.01 2621.32 301.791 2621.63 304.262 2632.52C307.683 2647.6 311.694 2647.6 315.425 2632.54C318.038 2621.98 326.623 2622.33 329.684 2631.51C331.761 2637.75 334.944 2641.26 337.629 2646C338.418 2643.93 339.2 2641.87 339.984 2639.81C339.022 2632.58 338.63 2624.2 336.99 2618.37C333.474 2605.92 333.917 2590.32 337.223 2577.37C338.768 2571.31 338.203 2560.18 337.704 2551.74C337.216 2543.54 333.789 2533.25 334.755 2528.39C339.176 2506.14 338.796 2486.53 334.811 2463.81C333.387 2455.68 337.058 2441.38 338.042 2429.67C338.441 2424.98 338.591 2418.02 337.618 2414.98C333.329 2401.56 333.588 2387.33 337.111 2372.38C338.63 2365.92 338.551 2352.4 337.002 2345.88C333.814 2332.41 333.868 2318.52 337.128 2304.9C338.651 2298.53 338.556 2284.97 337.006 2278.49C333.677 2264.54 333.628 2249.31 336.899 2236.32C338.451 2230.15 338.593 2216.75 337.116 2210.59C333.691 2196.31 333.735 2182.19 337.433 2167.21C338.873 2161.38 338.784 2148.21 337.27 2142.52C333.474 2128.28 333.392 2114.47 337.286 2099.35C338.817 2093.44 339.445 2079.54 338.038 2075.5C332.501 2059.63 332.741 2046.42 337.884 2030.79C339.211 2026.74 339.848 2017.63 339.113 2012.67C336.988 1998.32 334.209 1984.66 331.42 1969.87V1965C334.178 1963.89 336.582 1962.93 340 1961.56C339.034 1952.62 338.861 1943.84 337.27 1937.78C333.42 1923.1 333.672 1909.91 337.48 1894.56C338.931 1888.72 339.286 1876.11 337.909 1870.8C333.266 1852.84 333.203 1844.38 337.919 1825.54C339.298 1820.03 339.517 1806.63 338.084 1802.73C332.246 1786.91 333.236 1773.88 337.779 1757.63C339.214 1752.46 338.962 1739.44 337.51 1733.6C333.352 1716.88 333.317 1706.8 337.975 1690.57C340.408 1682.11 340.831 1671.71 337.03 1664.72C334.498 1669.37 332.699 1674.59 331.418 1680.32V1660.5C334.113 1645.24 336.911 1630.09 339.167 1614.37C339.827 1609.79 338.815 1601.47 337.524 1597.15C332.984 1581.95 332.998 1569.18 337.958 1553.47C338.868 1550.58 338.915 1545.7 339.484 1540.67C336.374 1544.58 333.884 1547.71 331.42 1550.81V1531.2C333.572 1514.2 335.742 1497.08 338.101 1478.46C335.802 1472.29 332.984 1436.58 334.815 1425.54C335.172 1423.39 335.977 1421.67 336.677 1420.06C340.859 1410.35 340.665 1401.05 336.806 1390.66C333.042 1380.55 333.226 1360.52 337.051 1350.64C340.768 1341.01 340.364 1332.31 336.985 1322.98C333.315 1312.84 333.53 1293.78 336.722 1282.6C338.138 1277.65 338.84 1270.47 339.046 1264.11C339.118 1261.89 336.337 1256.25 335.557 1257.07C333.418 1259.31 331.073 1263.12 329.85 1268.15C326.606 1281.48 318.23 1282.39 314.998 1268.85C310.781 1251.2 308.308 1252.58 303.886 1268.78C302.12 1275.27 297.036 1276.14 293.365 1277.36C291.867 1277.85 289.86 1273.17 288.519 1269.63C287.154 1266.01 285.77 1256.76 285.359 1257.16C282.937 1259.53 280.823 1264.08 278.572 1267.76C276.444 1271.23 274.257 1277.27 272.124 1277.19C269.672 1277.09 266.296 1273.22 264.998 1267.97C261.358 1253.25 256.88 1252.02 253.1 1266.81C248.847 1283.45 242.467 1282.51 238.61 1265.51C237.653 1261.31 235.418 1258.12 233.551 1256.95C232.424 1256.24 229.683 1260.44 229.706 1262.21C230.04 1284.31 222.202 1275.67 218.923 1283.77C216.926 1277.35 215.013 1270.73 212.908 1264.58C211.851 1261.5 210.582 1257.73 209.198 1256.92C204.573 1254.17 202.284 1261.43 202.051 1272.85C201.967 1277.03 202.037 1280.91 202.497 1284.05H198.352C198.42 1283.86 198.478 1283.67 198.52 1283.47C194.953 1277.9 191.352 1272.46 187.834 1266.67C185.96 1263.59 184.219 1257.2 182.422 1257.22C180.616 1257.23 178.866 1263.56 177 1266.72C174.671 1270.66 172.384 1275.93 169.822 1277.46C166.544 1279.42 163.195 1278.94 161.973 1266.19C161.574 1261.99 158.468 1257.14 156.622 1257.19C154.847 1257.24 152.133 1262.27 151.503 1266.8C149.153 1283.8 143.625 1275.66 139.64 1278.3C138.557 1279.01 136.126 1270.59 135.144 1265.25C133.282 1255.11 129.523 1252.87 126.624 1261.05C123.913 1268.68 121.043 1275.9 118.728 1282.01C119.396 1282.72 120.191 1283.4 121.094 1284.05H106.394C106.228 1274.33 106.079 1265.49 105.925 1256.7C105.281 1256.13 104.632 1255.56 103.984 1255C102.698 1259.05 101.676 1264.28 100.073 1266.88C97.2916 1271.39 94.2255 1276.16 91.1338 1277.05C89.5681 1277.5 87.7434 1269.47 85.9234 1265.65C84.3413 1262.32 82.5376 1256.84 80.9673 1257.16C79.0143 1257.57 76.0229 1262.05 75.5632 1266.38C74.3778 1277.63 71.7504 1278.07 68.388 1278.02C64.8927 1277.96 62.1719 1278.14 60.4919 1266.33C58.4572 1252 52.9388 1252.31 50.148 1265.34C46.2863 1283.34 39.1578 1283.26 35.0441 1265.18C32.2907 1253.05 27.1456 1252.77 24.6886 1264.63C20.8362 1283.17 14.5757 1282.95 9.55664 1265.95C8.03761 1260.82 4.41154 1260.26 1.74916 1257.6C1.7725 1265.29 0.629141 1275.55 2.02917 1280.16C6.78459 1295.83 7.06926 1308.82 2.26017 1324.98C0.74581 1330.08 0.638475 1343.81 2.10617 1348.78C6.83592 1364.69 6.86859 1377.5 2.14817 1393.51C0.640809 1398.63 0.633808 1412.79 2.1715 1417.63C6.92226 1432.54 7.23026 1445.03 2.34417 1459.47C-0.69855 1468.46 -0.642549 1477.73 2.53784 1487.43C6.89192 1500.71 6.89192 1513.66 2.53784 1528.5C0.934814 1533.97 0.836812 1548.25 2.37451 1553.81C6.67492 1569.32 6.88026 1581.48 2.44917 1597.09C0.91148 1602.52 1.00248 1616.1 2.48651 1622.1C6.31558 1637.63 6.27824 1648.75 2.35117 1665.35C0.876479 1671.57 0.829812 1685.39 2.42117 1690.82C6.72159 1705.43 7.00626 1717.86 2.55184 1731.44C-0.488546 1740.73 -0.850219 1750.13 2.2765 1759.53C6.97826 1773.68 7.3656 1786.68 2.11784 1801.21C-0.89222 1809.56 -0.74055 1819.66 2.87385 1828.71C4.98322 1833.99 6.54192 1834.79 7.80194 1833.05V1853.53C7.61994 1852.03 7.44027 1850.5 7.26526 1848.9C5.39623 1858.71 5.06489 1863.16 4.0592 1865.29C-1.19556 1876.39 -0.892219 1885.66 3.5622 1899.28C6.92459 1909.56 7.18826 1924.73 2.79451 1936.03C-0.71255 1945.07 -0.84322 1954.82 2.20184 1963.47C7.3586 1978.1 6.72392 1990.98 2.36751 2006.02C0.90448 2011.08 0.388803 2021 1.11915 2027.29C2.83185 2042.12 5.49656 2056.14 7.80194 2070.46V2071.2C6.80792 2070.84 5.81857 2070.48 4.82455 2070.12C3.8562 2074.61 2.20884 2078.98 2.0875 2083.64C1.93583 2089.63 2.49818 2096.87 3.76753 2101.53C4.15254 2102.94 5.81624 2101.82 7.80194 2100.61V2111.54C5.29356 2123.18 2.95785 2133.82 1.27549 2145.16C0.330469 2151.51 0.934814 2162.65 2.50984 2168C6.82192 2182.61 6.94792 2195.58 2.53784 2209.3C-0.672882 2219.28 -0.803551 2227.7 2.90652 2237.96C7.17893 2249.73 7.02959 2264.49 2.91585 2276.16C-0.889886 2286.97 0.776144 2294.48 2.63351 2305.62C4.39521 2316.18 6.03091 2335.98 4.16887 2340.18C-1.97491 2353.99 2.13184 2364.22 3.86787 2376.12C5.84657 2389.69 7.11593 2402.03 2.42351 2415.16C0.813479 2419.66 0.89748 2434.75 2.47718 2440.25C6.96192 2455.94 6.67725 2468.19 2.41651 2483.73C0.906813 2489.25 1.00482 2503.15 2.57051 2508.7C6.79625 2523.69 6.98292 2536.77 2.49351 2550.24C-0.735883 2559.93 -0.656549 2569.15 2.47718 2577.95C7.05293 2590.82 6.49758 2602.92 3.13985 2617.19C1.61849 2623.7 0.428471 2638.07 1.53216 2640.41C4.67288 2647.03 8.00961 2643.67 10.3243 2632.76C12.7954 2621.17 21.7905 2621.58 24.2849 2632.31C27.8106 2647.48 31.7727 2647.63 35.4361 2632.74C38.3225 2621 46.907 2621.41 49.7864 2633.42C53.0694 2647.1 57.8459 2647.29 60.9282 2633.87C63.9196 2620.81 72.0771 2621.04 75.2738 2634.28C77.9876 2645.48 83.5293 2646.66 85.8977 2636.51C89.6078 2620.64 96.7876 2619.82 100.698 2634.82C104.002 2647.49 108.846 2646.52 111.952 2632.56C114.365 2621.7 123.043 2621.6 125.551 2632.4ZM5.08122 1814.05C5.96557 1810.91 6.95492 1807.95 7.80194 1804.76V1819.64C6.88259 1817.75 5.97957 1815.89 5.08122 1814.05ZM7.80194 2265.37V2283.78C5.21656 2278.68 6.70759 2271.85 7.80194 2265.37Z" fill="white"/>
</svg>
