<svg width="225" height="145" viewBox="0 0 225 145" fill="none" xmlns="http://www.w3.org/2000/svg">
<path d="M31.9418 41C29.4931 37.0023 27.2215 33.4865 24.9612 30.2657L28.8881 28.2939C31.1998 31.5589 33.5228 35.1633 36 39.2396L31.9418 41ZM19.6815 23.2881C17.016 19.91 14.1221 16.6843 11 13.6061L14.4703 11C17.7123 14.1765 20.7317 17.5006 23.5342 20.9672L19.6815 23.2881Z" fill="#410C00"/>
<path d="M75.5758 103.004C73.6575 102.045 71.8082 100.969 70.033 99.7798L72.4758 96.3557C76.2064 98.7956 80.1913 100.749 84.4359 102.215L82.9628 106.131C80.4245 105.254 77.9657 104.209 75.5758 103.004ZM106.305 104.455C104.62 102.958 103.057 101.353 101.616 99.6362C100.068 97.7807 98.7011 95.8072 97.5194 93.7159L101.282 91.7629C102.305 93.6236 103.481 95.3869 104.816 97.0528C106.12 98.6418 107.535 100.128 109.066 101.512L106.305 104.455ZM121.508 104.075L119.373 100.467C121.477 99.3389 123.411 97.9806 125.165 96.3916C126.797 94.9153 128.185 93.2546 129.341 91.4093L133.045 93.5467C131.656 95.7662 129.987 97.7602 128.021 99.5235C126.018 101.302 123.824 102.835 121.44 104.111L121.508 104.075ZM40.4587 61.095L37.7296 55.6975L34.7833 49.8899L38.5351 48.1881L41.4708 54.0111L44.2104 59.3881L40.4587 61.095ZM94.3347 83.8333C94.2075 81.1832 94.748 78.6715 95.9562 76.2931C97.1432 74.0173 98.7647 72.0899 100.831 70.5009L103.481 73.7866C101.891 74.986 100.646 76.452 99.7344 78.1897C98.8442 79.953 98.4468 81.8137 98.5315 83.7769L94.3347 83.8333ZM217.852 143.888L218.625 139.828C222.361 140.494 224.645 140.848 225 140.91L224.332 145C223.94 144.918 221.619 144.544 217.852 143.888ZM131.895 82.7107C131.884 80.5732 131.407 78.5383 130.475 76.5956C129.802 75.1552 128.858 73.9045 127.634 72.8434L130.506 69.7936C132.154 71.2339 133.437 72.9306 134.348 74.8835C135.525 77.3901 136.113 80.0145 136.113 82.7517L131.895 82.7107ZM111.106 69.9525L110.004 66.0927C112.436 65.452 114.922 65.1444 117.449 65.1752C119.553 65.211 121.614 65.5083 123.639 66.0671L122.393 70.1011C120.745 69.65 119.06 69.4142 117.349 69.3835C115.24 69.3373 113.157 69.568 111.117 70.0755L111.106 69.9525ZM5.02882 7.43248C3.4073 5.94086 1.7381 4.52612 -1.52588e-05 3.25491L2.78731 0C4.47772 1.36348 6.23703 2.87048 7.92213 4.39285L5.02882 7.43248Z" fill="#410C00"/>
<path d="M63.69 95C60.1899 91.9908 57.0226 88.7213 54.188 85.1862L58.0447 82.6053C60.7247 85.9073 63.7079 88.9599 67 91.7631L63.69 95ZM48.9527 78.1809C46.7362 74.9602 44.4661 71.3004 42 66.9845L46.2845 65C48.6853 69.1858 50.8602 72.6776 53.0589 75.8874L48.9527 78.1809Z" fill="#410C00"/>
<path d="M88 107.605L88.4823 103.588C93.064 104.212 97.6063 104.015 102.109 103L103 106.966C98.0394 108.083 93.0443 108.294 88 107.605Z" fill="#410C00"/>
<path d="M127.436 117.88L127.301 117.815C123.397 115.888 119.628 113.735 116 111.357L118.408 108C121.854 110.243 125.43 112.285 129.125 114.122L129.292 114.207L128.328 116.004L127.582 117.91L127.436 117.88ZM135.281 121.503L137.007 117.81C140.666 119.386 144.654 120.966 148.813 122.452L147.312 126.255C143.08 124.735 139.014 123.114 135.281 121.503ZM155.611 129.125L156.982 125.252C160.855 126.521 164.983 127.791 169.221 129.085L168.001 133.029C163.748 131.725 159.65 130.48 155.611 129.125ZM176.404 135.267L177.551 131.283C181.554 132.347 185.745 133.416 189.998 134.419L189.003 138.343C184.697 137.4 180.464 136.361 176.425 135.277L176.404 135.267ZM197.494 140.371L198.412 136.411C202.665 137.37 206.783 138.313 211 139.026L210.192 143C205.991 142.177 201.716 141.294 197.494 140.371Z" fill="#410C00"/>
</svg>
