<svg width="225" height="145" viewBox="0 0 225 145" fill="none" xmlns="http://www.w3.org/2000/svg">
<path d="M31.9418 104C29.4931 107.998 27.2215 111.514 24.9612 114.734L28.8881 116.706C31.1998 113.441 33.5228 109.837 36 105.76L31.9418 104ZM19.6815 121.712C17.016 125.09 14.1221 128.316 11 131.394L14.4703 134C17.7123 130.823 20.7317 127.499 23.5342 124.033L19.6815 121.712Z" fill="#410C00"/>
<path d="M75.5758 41.9961C73.6575 42.9546 71.8082 44.031 70.033 45.2202L72.4758 48.6443C76.2064 46.2044 80.1913 44.2514 84.4359 42.7855L82.9628 38.8693C80.4245 39.7458 77.9657 40.7915 75.5758 41.9961ZM106.305 40.5455C104.62 42.0422 103.057 43.6466 101.616 45.3638C100.068 47.2193 98.7011 49.1928 97.5194 51.2841L101.282 53.2371C102.305 51.3764 103.481 49.6131 104.816 47.9472C106.12 46.3582 107.535 44.8717 109.066 43.4877L106.305 40.5455ZM121.508 40.9248L119.373 44.5334C121.477 45.6611 123.411 47.0194 125.165 48.6084C126.797 50.0847 128.185 51.7454 129.341 53.5907L133.045 51.4533C131.656 49.2338 129.987 47.2398 128.021 45.4765C126.018 43.6979 123.824 42.1652 121.44 40.8889L121.508 40.9248ZM40.4587 83.905L37.7296 89.3025L34.7833 95.1101L38.5351 96.8119L41.4708 90.9889L44.2104 85.6119L40.4587 83.905ZM94.3347 61.1667C94.2075 63.8168 94.748 66.3285 95.9562 68.7069C97.1432 70.9827 98.7647 72.9101 100.831 74.4991L103.481 71.2134C101.891 70.014 100.646 68.548 99.7344 66.8103C98.8442 65.047 98.4468 63.1863 98.5315 61.2231L94.3347 61.1667ZM217.852 1.1123L218.625 5.17198C222.361 4.50562 224.645 4.15193 225 4.09042L224.332 0C223.94 0.082016 221.619 0.456192 217.852 1.1123ZM131.895 62.2893C131.884 64.4268 131.407 66.4617 130.475 68.4044C129.802 69.8448 128.858 71.0955 127.634 72.1566L130.506 75.2064C132.154 73.7661 133.437 72.0694 134.348 70.1165C135.525 67.6099 136.113 64.9855 136.113 62.2483L131.895 62.2893ZM111.106 75.0475L110.004 78.9073C112.436 79.548 114.922 79.8556 117.449 79.8248C119.553 79.789 121.614 79.4917 123.639 78.9329L122.393 74.8989C120.745 75.35 119.06 75.5858 117.349 75.6165C115.24 75.6627 113.157 75.432 111.117 74.9245L111.106 75.0475ZM5.02882 137.568C3.4073 139.059 1.7381 140.474 -1.52588e-05 141.745L2.78731 145C4.47772 143.637 6.23703 142.13 7.92213 140.607L5.02882 137.568Z" fill="#410C00"/>
<path d="M63.69 50C60.1899 53.0092 57.0226 56.2787 54.188 59.8138L58.0447 62.3947C60.7247 59.0927 63.7079 56.0401 67 53.2369L63.69 50ZM48.9527 66.8191C46.7362 70.0398 44.4661 73.6996 42 78.0155L46.2845 80C48.6853 75.8142 50.8602 72.3224 53.0589 69.1126L48.9527 66.8191Z" fill="#410C00"/>
<path d="M88 37.3951L88.4823 41.4118C93.064 40.7884 97.6063 40.9845 102.109 42L103 38.0335C98.0394 36.9175 93.0443 36.7063 88 37.3951Z" fill="#410C00"/>
<path d="M127.436 27.1197L127.301 27.1849C123.397 29.1118 119.628 31.2645 116 33.643L118.408 37C121.854 34.757 125.43 32.7147 129.125 30.8781L129.292 30.7928L128.328 28.9964L127.582 27.0896L127.436 27.1197ZM135.281 23.4968L137.007 27.19C140.666 25.6143 144.654 24.0337 148.813 22.5484L147.312 18.7448C143.08 20.2652 139.014 21.886 135.281 23.4968ZM155.611 15.8746L156.982 19.7484C160.855 18.4789 164.983 17.2093 169.221 15.9147L168.001 11.9706C163.748 13.2753 159.65 14.5197 155.611 15.8746ZM176.404 9.73262L177.551 13.7168C181.554 12.653 185.745 11.5842 189.998 10.5806L189.003 6.65663C184.697 7.6 180.464 8.63871 176.425 9.72258L176.404 9.73262ZM197.494 4.62939L198.412 8.58853C202.665 7.63011 206.783 6.68674 211 5.97419L210.192 2C205.991 2.82294 201.716 3.70609 197.494 4.62939Z" fill="#410C00"/>
</svg>
