<svg width="40" height="40" viewBox="0 0 40 40" fill="none" xmlns="http://www.w3.org/2000/svg">
<path fill-rule="evenodd" clip-rule="evenodd" d="M17.2055 14.4199C14.5643 11.1883 9.85607 5.23442 8.68775 3.25632C8.64281 3.23183 8.59788 3.20246 8.55794 3.17308C8.55794 3.17308 9.07719 4.49997 9.41171 5.2589C11.1891 9.30323 12.8617 13.3965 14.6542 17.4947C15.1634 16.1482 16.0671 15.0564 17.2055 14.4199ZM24.3552 17.2401L35.3444 6.72778L36.1083 5.75342L36.3629 5.42537L36.5576 5.17566C31.8344 7.91269 27.1412 10.7232 22.6027 13.5483C22.2882 13.8078 21.9636 14.0722 21.6391 14.3268C22.7974 14.9046 23.756 15.9377 24.3552 17.2401ZM33.2024 10.9924C32.3537 11.9619 31.5049 12.9363 30.6561 13.8959C29.2831 15.8545 28.1697 17.4702 28.1697 17.4702L32.8829 20.2073C33.6019 17.1177 33.7167 13.94 33.2024 10.9924ZM23.9657 17.6955C23.9657 17.6955 20.0114 21.1718 20.0614 21.2159C20.4458 21.5146 24.0556 22.675 24.0856 22.6456C24.2953 22.4644 24.3702 21.7741 24.4151 21.5244C24.5599 20.7459 24.5549 19.9967 24.3752 19.2231C24.2653 18.7139 24.0057 18.2194 23.9657 17.6955ZM15.2683 17.7885C15.2683 17.7885 14.3496 20.5843 14.8489 22.4547C14.8838 22.5869 15.423 23.9676 15.5728 24.0117C15.7326 24.0557 19.1427 21.3971 19.1327 21.3236C19.0928 21.0837 15.2683 17.7885 15.2683 17.7885ZM24.6148 22.6946C24.505 23.0079 24.3752 23.3066 24.2254 23.5906C24.2803 23.6934 24.3352 23.7962 24.3851 23.8942C25.5435 25.98 26.7068 28.0805 27.925 30.1369C29.9871 27.772 31.5049 24.9126 32.4335 21.8867L24.6148 22.6946ZM23.9807 24.0166C23.5164 24.7608 22.9123 25.3777 22.2083 25.8135C23.2817 27.0327 25.144 29.143 26.9415 31.1896C27.1462 30.9889 27.3459 30.7783 27.5406 30.5727C26.2974 28.4134 25.1041 26.2248 23.9807 24.0166ZM28.2046 31.6988C28.0598 31.8457 27.9151 31.9877 27.7653 32.1297C28.6041 33.0894 29.3979 33.9952 30.057 34.759C29.4279 33.7406 28.8088 32.7271 28.2046 31.6988ZM20.7104 28.5946C20.2012 30.8812 19.3624 34.3918 18.958 36.0957C21.4843 35.2144 23.8459 33.8238 25.6633 32.3403C24.0307 31.0721 22.388 29.8089 20.7104 28.5946ZM15.4979 24.232L15.5029 24.4572C15.5029 24.4572 7.07507 32.9082 3.05087 36.8644C2.97598 36.9819 2.90109 37.0897 2.82619 37.2072L2.71136 37.3736C7.75909 33.8385 12.8118 30.4013 18.0593 26.9641C18.3339 26.7781 18.5785 26.6067 18.8331 26.5284L18.908 26.4696C17.56 26.2395 16.3517 25.4169 15.4979 24.232ZM31.5898 6.86978C28.8737 2.60511 23.067 0.950167 19.8367 1.39083C17.0257 1.77764 14.4195 3.08005 12.0779 4.63217L11.9431 4.65176L11.958 4.54894C13.8703 2.80096 16.0621 1.32228 18.5386 0.529086C19.1427 0.338131 19.7618 0.201034 20.3909 0.103109C20.4908 0.0884195 21.04 0.0247681 21.4244 0.00518294C25.6483 -0.13681 29.7924 2.65407 31.8744 6.49276C31.8993 6.54662 31.9243 6.59069 31.9492 6.63965C33.6518 5.53309 35.3843 4.44122 37.1617 3.36893C37.7709 3.0115 38.36 2.6247 38.9492 2.2281C38.9492 2.2281 39.0989 2.0959 39.4085 2.091C39.8878 2.16445 40.1824 2.69324 39.8728 3.13391C39.094 4.09358 38.3101 5.04836 37.5162 5.98845L37.3415 6.19899C36.8472 6.77675 36.3529 7.35451 35.8586 7.93227L35.2994 8.58348C34.6703 9.30813 34.0362 10.0328 33.4071 10.7574C34.2859 13.9939 34.3258 17.4213 33.7067 20.6822L35.2844 21.5929L33.477 21.7839C33.0227 23.7081 32.3387 25.554 31.4649 27.2481C30.716 28.7072 29.7474 30.0586 28.6091 31.2729C29.6426 32.9621 30.726 34.6121 31.8893 36.1936L32.0741 36.6245C31.9043 37.3834 31.5648 36.9379 31.2852 36.7273C31.1853 36.649 31.0855 36.5755 30.9856 36.4972C30.8958 36.4238 30.8059 36.3552 30.716 36.2916C29.358 35.234 28.0049 34.1715 26.6519 33.109C24.5199 34.8569 22.0136 36.2132 19.3224 37.075C15.8125 38.1913 11.7533 38.1424 8.5829 36.1055L8.43811 35.8019C8.43811 35.8019 8.6528 35.7138 8.88247 35.8411C11.7583 37.4128 15.1634 37.2806 18.3538 36.2916C17.6648 34.7737 16.167 31.4932 15.423 30.0243C11.9281 32.448 8.48304 34.994 4.99807 37.3345C4.01947 37.9955 3.1008 38.7103 2.09724 39.3566C1.92249 39.4693 0.968868 40.1107 0.469588 39.9834C0.0701629 39.8805 -0.119564 39.3958 0.0801485 39.009C3.52019 33.7112 7.10503 28.4722 10.8197 23.5367C10.1107 23.2968 4.49379 19.8988 3.84473 19.3112C3.22562 22.9149 3.1657 26.5088 4.35399 30.1222L4.33402 30.2544L4.24415 30.2104C1.28841 24.3201 2.41678 16.5938 4.9731 12.0011C5.95668 10.2384 7.17493 8.61285 8.62284 7.17824C8.62284 7.17824 8.79759 7.1048 8.95736 7.0999L8.97234 7.35941C6.52087 10.3412 4.9731 13.8372 4.13431 17.7885C4.03945 18.2487 3.94958 18.709 3.86969 19.1692C4.71847 18.7629 11.5636 17.4409 13.396 17.0638C11.6884 12.8726 10.0807 8.64713 8.33326 4.41674C8.29831 4.3384 8.26836 4.26006 8.2384 4.18172C8.1685 4.00545 8.10359 3.81939 8.03869 3.63333C8.02371 3.57947 8.00873 3.52561 7.98876 3.47175C7.91886 3.25142 8.08861 3.61864 7.82399 3.09474C7.71914 2.88909 7.62428 2.59042 7.87392 2.43374C8.69274 1.91963 10.0857 3.73126 11.0444 4.50977C13.7954 6.74737 16.5215 9.06331 18.9929 11.5408C19.1826 11.6828 19.3224 11.7856 19.4173 11.8444C19.637 11.5115 24.2803 3.75084 24.48 4.02503C24.7846 4.43632 24.8994 10.1209 24.9194 11.4037C27.1062 9.8712 29.323 8.35825 31.5898 6.86978Z" fill="white"/>
</svg>
