<svg width="10" height="14" viewBox="0 0 10 14" fill="none" xmlns="http://www.w3.org/2000/svg">
<path fill-rule="evenodd" clip-rule="evenodd" d="M9.49317 5.95285C9.81771 6.22828 10 6.60164 10 6.99092C10 7.3802 9.81771 7.75356 9.49317 8.02899L2.95845 13.57C2.63334 13.8454 2.19245 14.0001 1.73278 14C1.27311 13.9999 0.83231 13.845 0.507351 13.5695C0.182391 13.2939 -0.000108288 12.9202 4.82055e-08 12.5306C0.000108384 12.1409 0.182816 11.7673 0.507928 11.4919L5.81796 6.99092L0.507928 2.48999C0.192083 2.21306 0.0171932 1.84207 0.0209261 1.45691C0.0246591 1.07174 0.206716 0.703231 0.527885 0.430742C0.849055 0.158253 1.28364 0.00358899 1.73804 6.1677e-05C2.19243 -0.00346563 2.63029 0.144426 2.95729 0.411883L9.49432 5.95187L9.49317 5.95285Z" fill="white"/>
</svg>
