<svg width="24" height="25" viewBox="0 0 24 25" fill="none" xmlns="http://www.w3.org/2000/svg">
<path d="M20.772 10.9529L19.404 6.84788C19.2056 6.25036 18.8238 5.73058 18.3131 5.36238C17.8024 4.99419 17.1886 4.79632 16.559 4.79688H7.441C6.81139 4.79632 6.19761 4.99419 5.68688 5.36238C5.17615 5.73058 4.79445 6.25036 4.596 6.84788L3.228 10.9529C2.86461 11.1054 2.55428 11.3616 2.33584 11.6896C2.11741 12.0176 2.00059 12.4028 2 12.7969V17.7969C2 18.5499 2.423 19.1989 3.039 19.5399C3.026 19.6059 3 19.6659 3 19.7349V21.7969C3 22.0621 3.10536 22.3164 3.29289 22.504C3.48043 22.6915 3.73478 22.7969 4 22.7969H5C5.26522 22.7969 5.51957 22.6915 5.70711 22.504C5.89464 22.3164 6 22.0621 6 21.7969V19.7969H18V21.7969C18 22.0621 18.1054 22.3164 18.2929 22.504C18.4804 22.6915 18.7348 22.7969 19 22.7969H20C20.2652 22.7969 20.5196 22.6915 20.7071 22.504C20.8946 22.3164 21 22.0621 21 21.7969V19.7349C21 19.6659 20.974 19.6049 20.961 19.5399C21.2744 19.369 21.5362 19.1171 21.7189 18.8105C21.9017 18.5039 21.9988 18.1538 22 17.7969V12.7969C22 11.9679 21.492 11.2559 20.772 10.9529ZM4 17.7969V12.7969H20L20.002 17.7969H4ZM7.441 6.79688H16.558C16.989 6.79688 17.371 7.07088 17.507 7.48088L18.613 10.7969H5.387L6.492 7.48088C6.55835 7.28167 6.68572 7.1084 6.85605 6.98563C7.02638 6.86287 7.23104 6.79683 7.441 6.79688Z" fill="#0B0A0A"/>
<path d="M6.5 16.7969C7.32843 16.7969 8 16.1253 8 15.2969C8 14.4684 7.32843 13.7969 6.5 13.7969C5.67157 13.7969 5 14.4684 5 15.2969C5 16.1253 5.67157 16.7969 6.5 16.7969Z" fill="#0B0A0A"/>
<path d="M17.5 16.7969C18.3284 16.7969 19 16.1253 19 15.2969C19 14.4684 18.3284 13.7969 17.5 13.7969C16.6716 13.7969 16 14.4684 16 15.2969C16 16.1253 16.6716 16.7969 17.5 16.7969Z" fill="#0B0A0A"/>
</svg>
