<svg width="185" height="80" viewBox="0 0 185 80" fill="none" xmlns="http://www.w3.org/2000/svg">
<g clip-path="url(#clip0_901_2970)">
<path d="M172.958 0L159.425 46.5728C157.942 51.8539 153.658 60.6839 143.181 60.6839H0L15.3036 80H155.224C165.702 80 169.984 71.1743 171.468 65.8889L185 19.3161L172.958 0Z" fill="#410C00"/>
<path d="M143.27 61.3333C153.753 61.3333 158.039 52.4131 159.524 47.0713L173.065 0H29.7948C19.3393 0 15.1074 8.85829 13.5408 14.2642L0 61.3333H143.27Z" fill="#DC281D"/>
<path d="M30.6976 5.33301C25.7531 5.33301 20.8982 7.92917 18.6103 15.7176L7.16211 54.6663H144.756C149.7 54.6663 154.555 52.0702 156.845 44.2817L168.291 5.33301H30.6976Z" fill="white"/>
<path fill-rule="evenodd" clip-rule="evenodd" d="M157.554 56.0001C157.082 55.9987 156.62 56.1932 156.226 56.559C155.833 56.9248 155.526 57.4454 155.345 58.055C155.163 58.6645 155.116 59.3354 155.208 59.9828C155.3 60.6301 155.528 61.2247 155.862 61.6913C156.196 62.1578 156.622 62.4752 157.086 62.6033C157.55 62.7314 158.03 62.6644 158.466 62.4108C158.903 62.1572 159.275 61.7284 159.537 61.1788C159.799 60.6292 159.938 59.9835 159.936 59.3235C159.939 58.8859 159.879 58.4519 159.76 58.0468C159.641 57.6418 159.466 57.2739 159.244 56.9646C159.023 56.6552 158.759 56.4106 158.469 56.245C158.179 56.0794 157.868 55.9962 157.554 56.0001ZM157.554 62.001C157.177 62.0025 156.807 61.8475 156.492 61.5557C156.178 61.2639 155.932 60.8484 155.786 60.3617C155.641 59.8749 155.602 59.3389 155.674 58.8212C155.747 58.3035 155.928 57.8275 156.194 57.4533C156.46 57.0791 156.8 56.8235 157.17 56.7188C157.54 56.6142 157.925 56.6652 158.274 56.8653C158.624 57.0655 158.923 57.4059 159.134 57.8434C159.345 58.2809 159.458 58.796 159.46 59.3235C159.465 59.6757 159.419 60.0257 159.325 60.3527C159.232 60.6798 159.092 60.9771 158.914 61.227C158.736 61.4769 158.524 61.6742 158.291 61.8072C158.057 61.9401 157.807 62.0061 157.554 62.001Z" fill="#DC281D"/>
<path d="M156.355 57.3352H157.611C157.76 57.3243 157.908 57.3543 158.048 57.4234C158.187 57.4924 158.315 57.5991 158.423 57.737C158.578 57.9738 158.661 58.2814 158.656 58.598C158.666 58.8745 158.604 59.147 158.482 59.369C158.36 59.591 158.185 59.7486 157.986 59.8148L158.743 61.333H158.162L157.47 59.9353H156.851V61.333H156.355V57.3352ZM157.575 59.3269C157.927 59.3269 158.154 59.0629 158.154 58.6553C158.154 58.2249 157.942 57.9895 157.571 57.9895H156.851V59.3384L157.575 59.3269Z" fill="#DC281D"/>
<path d="M148.743 23.8483H156.178L159.936 10.7492C159.286 10.4315 158.615 10.1896 157.93 10.0264C156.053 9.55078 154.141 9.31867 152.226 9.33369C144.633 9.33369 142.817 11.9152 140.458 20.3718C138.56 27.1655 139.737 29.5857 142.204 32.6835C143.912 34.8348 145.279 36.1062 144.204 39.5826L142.838 43.9626C142.52 44.993 142.221 45.4792 141.695 45.4792C140.884 45.4792 140.841 44.8618 141.195 43.7044L143.285 36.7687H135.923L131.886 50.6788C131.886 50.6788 132.925 51.0187 134.413 51.3242C136.236 51.7346 138.083 51.9505 139.936 51.9696C147.565 51.9696 149.105 49.274 151.297 41.4284C153.301 34.284 152.611 31.4186 149.589 27.6366C147.524 25.0551 146.994 23.9644 147.809 21.1484L148.663 18.2055C148.994 17.0589 149.269 16.6996 149.915 16.6996C150.438 16.6996 150.694 17.089 150.354 18.2851L148.743 23.8483ZM133.501 33.4493C133.301 32.8242 133.012 32.2509 132.646 31.7584C132.803 31.7029 132.955 31.6309 133.103 31.5433C134.068 31.0473 134.94 30.3018 135.662 29.3551C136.385 28.4083 136.941 27.2813 137.296 26.0468L139.087 19.8835C140.849 13.8105 139.001 9.91023 134.411 9.90378H125.6L113.603 51.3715H120.957L125.901 34.1442L125.979 34.1334C126.833 34.1334 127.101 35.2736 126.505 37.5238L122.768 51.3715H129.975L133.442 38.7866C134.098 36.4202 133.878 34.6454 133.501 33.4493ZM131.951 19.4145L130.243 25.4273C129.806 26.9332 129.218 27.6947 128.237 27.6969H127.725L130.827 17.0589H131.087C132.028 17.0589 132.477 17.6031 131.953 19.4253M109.527 9.91023H101.638L94.5678 22.5145L98.4489 9.91023H90.673L78.6759 51.3715H86.5202L90.415 36.7429L90.1981 51.3715H97.8391L97.4564 30.5301L109.527 9.91023ZM74.5625 32.8126L71.4039 43.6743C71.0622 44.8145 70.8402 45.4577 70.0219 45.4663C69.2771 45.4663 69.3813 44.737 69.6393 43.8313L77.0223 18.2679C77.364 17.0718 77.6049 16.6566 78.3889 16.6587C78.992 16.6587 79.0534 17.1987 78.7169 18.3647L76.0008 27.7119H83.3634L88.2541 10.7966C87.6459 10.4972 87.0168 10.2703 86.375 10.1189C85.128 9.78116 83.2352 9.44771 80.6284 9.44771C73.0968 9.44771 71.5115 11.5022 69.3694 18.9262L62.4732 42.8461C60.9357 48.1683 62.152 52.004 68.5374 51.9997C75.3944 51.9997 77.147 49.2461 78.6725 43.969L81.8926 32.8104L74.5625 32.8126ZM61.6891 9.91023L49.704 51.3715H57.8506L69.8221 9.91023H61.6891ZM53.3733 9.91023L48.0043 29.4286L49.4665 9.91023H41.1166L29.0837 51.3715H34.9823L40.4897 31.9413L39.053 51.3715H47.3449L59.2343 9.91023H53.3733ZM28.4482 27.6302C26.3864 25.0379 25.8517 23.9429 26.6682 21.1398L27.5223 18.2012C27.864 17.0481 28.139 16.6953 28.7796 16.6953C29.304 16.7104 29.5671 17.0825 29.222 18.2851L27.6163 23.8612H35.0404L38.7814 10.7578C38.1346 10.447 37.4676 10.2073 36.7879 10.0415C34.9124 9.55421 33.0006 9.32269 31.0858 9.3509C23.496 9.3509 21.6904 11.9174 19.321 20.3761C17.4129 27.1655 18.5984 29.59 21.0634 32.6835C22.7717 34.8348 24.1383 36.1126 23.0621 39.5847L21.6955 43.9776C21.3761 45.0059 21.0805 45.4835 20.5475 45.4835C19.743 45.4835 19.6934 44.8747 20.0487 43.7173L22.1396 36.7838H14.772L10.7422 50.6788C10.7422 50.6788 11.7842 51.023 13.2636 51.3392C15.0887 51.7478 16.9378 51.9637 18.7915 51.9846C26.4342 51.9846 27.9665 49.2891 30.1616 41.4262C32.1637 34.2926 31.4786 31.4293 28.4533 27.6366M111.363 33.9463H115.83L117.88 26.8944H113.398L116.237 16.9126H121.966L124.062 9.91023H110.485L98.466 51.3715H112.036L113.994 44.5133H108.292L111.363 33.9463Z" fill="#210082"/>
<path fill-rule="evenodd" clip-rule="evenodd" d="M135.466 35.9468L131.786 48.2476L132.26 48.3749L135.988 35.9468H135.466ZM149.608 15.0732C149.505 15.0732 149.422 15.0732 149.331 15.0899C150.284 15.236 150.446 16.2776 150.111 17.3568L148.693 22.0179H149.205L150.615 17.3672C150.984 16.1837 150.763 15.0711 149.601 15.0711M143.528 32.3064C140.012 27.8917 138.645 26.562 140.658 19.5611C142.921 11.6771 144.532 9.38937 151.581 9.33301H151.366C144.061 9.33301 142.429 11.5727 140.137 19.5798C138.128 26.5746 139.488 27.9042 143.008 32.3127C144.435 34.1016 144.665 35.6733 143.871 38.2366L142.677 42.1275C142.271 43.4112 141.898 44.2503 141.072 44.386C141.164 44.3976 141.257 44.4018 141.349 44.3985C142.34 44.3985 142.75 43.5343 143.185 42.1254L144.38 38.2387C145.17 35.6692 144.935 34.1057 143.515 32.3169M125.148 9.88407L113.582 48.7193H114.094L125.664 9.89451L125.148 9.88407ZM125.549 32.01H125.169C126.833 32.0977 126.819 34.0619 126.165 36.3935L122.723 48.7193H123.235L126.676 36.3872C127.345 33.993 127.34 31.9871 125.544 32.0038M130.741 15.4281H130.229C131.535 15.4281 132.296 16.3904 131.631 18.6468L129.924 24.4809C129.434 26.1508 128.673 27.1423 127.396 27.1465H127.908C129.185 27.1465 129.946 26.1467 130.438 24.4851L132.144 18.6405C132.81 16.3904 132.032 15.4281 130.74 15.4281M90.1186 33.2478L89.9582 48.7172H90.4805L90.6511 31.34L90.1186 33.2478ZM101.112 9.88407L92.9416 23.8422L92.3477 25.7354L101.621 9.88407H101.112ZM78.6833 48.7193H79.1954L90.7621 9.89451H90.2501L78.6833 48.7193ZM78.1013 15.0252C78.0023 15.0252 77.9067 15.0252 77.8112 15.0503C78.7209 15.1922 78.8489 16.1941 78.5178 17.3151L76.0071 25.7647H76.5294L79.0349 17.3234C79.3933 16.1211 79.2056 15.0273 78.1013 15.0273M71.1343 42.188C70.793 43.2901 70.4601 44.219 69.4873 44.3484C69.5687 44.3622 69.6508 44.3692 69.7331 44.3693C70.9158 44.3797 71.2862 43.3945 71.6463 42.1942L74.6758 32.0914H74.1638L71.1343 42.188ZM69.1016 18.1834L62.2165 41.3823C60.8203 46.0893 61.7488 49.3351 67.7413 49.333H68.0246C62.2438 49.2495 61.3546 46.035 62.7336 41.3697L69.6255 18.1813C71.66 11.3306 73.0169 9.47912 80.0675 9.43946H79.8217C72.5356 9.43946 71.1701 11.2471 69.1016 18.1834ZM49.7349 48.7193H50.2469L61.8034 9.89451H61.2914L49.7349 48.7193ZM38.9243 48.7193H39.4363L41.0543 26.0026L40.3716 28.2841L38.9243 48.7193ZM29.1343 48.7193H29.6463L41.2608 9.89451H40.7403L29.1343 48.7193ZM52.9914 9.89451L46.9819 30.6762L46.7959 33.0871L53.5103 9.88407L52.9914 9.89451ZM14.4305 35.9468L10.7422 48.2476L11.2389 48.3916L14.9442 35.9531L14.4305 35.9468ZM28.5693 15.0732C28.4807 15.0749 28.3922 15.0846 28.3048 15.1025C29.252 15.2444 29.4125 16.2756 29.0797 17.361L27.663 22.022H28.1751L29.5883 17.361C29.9467 16.1858 29.7368 15.0649 28.5642 15.0649M19.1053 19.5631C17.0999 26.5579 18.4653 27.9021 21.9778 32.296C23.4013 34.0849 23.6334 35.6608 22.8466 38.2304L21.6518 42.1108C21.2422 43.4091 20.8718 44.2461 20.0458 44.3734C20.1376 44.3851 20.23 44.3893 20.3223 44.386C21.3139 44.386 21.7337 43.5302 22.1638 42.1066L23.3586 38.2262C24.1522 35.6567 23.9167 34.0932 22.495 32.2981C18.9722 27.8959 17.6068 26.5453 19.6242 19.5652C21.8822 11.6834 23.4968 9.39563 30.5475 9.33718H30.3307C23.0326 9.33718 21.3975 11.5853 19.1053 19.5757M98.4698 48.7318H98.9819L110.569 9.90703H110.057L98.4698 48.7318Z" fill="white"/>
</g>
<defs>
<clipPath id="clip0_901_2970">
<rect width="185" height="80" fill="white"/>
</clipPath>
</defs>
</svg>
