<svg width="15" height="8" viewBox="0 0 15 8" fill="none" xmlns="http://www.w3.org/2000/svg">
<path fill-rule="evenodd" clip-rule="evenodd" d="M8.23637 0.291681C8.04103 0.10421 7.77612 -0.00110579 7.49991 -0.00110579C7.2237 -0.00110579 6.95879 0.10421 6.76345 0.291681L0.870743 5.94868C0.771253 6.04093 0.691897 6.15127 0.637304 6.27328C0.582711 6.39528 0.553976 6.5265 0.552774 6.65928C0.551572 6.79206 0.577928 6.92374 0.630304 7.04663C0.68268 7.16953 0.760027 7.28118 0.857832 7.37508C0.955637 7.46897 1.07194 7.54322 1.19996 7.5935C1.32797 7.64378 1.46514 7.66908 1.60345 7.66793C1.74176 7.66678 1.87845 7.63919 2.00554 7.58678C2.13263 7.53437 2.24757 7.45819 2.34366 7.36268L7.49991 2.41268L12.6562 7.36268C12.8526 7.54484 13.1157 7.64563 13.3889 7.64335C13.662 7.64108 13.9233 7.53591 14.1164 7.3505C14.3095 7.16509 14.4191 6.91428 14.4214 6.65208C14.4238 6.38989 14.3188 6.13728 14.1291 5.94868L8.23637 0.291681Z" fill="#0B0A0A"/>
</svg>
