<svg width="24" height="25" viewBox="0 0 24 25" fill="none" xmlns="http://www.w3.org/2000/svg">
<path d="M10.9041 24.7969V22.6051C8.621 22.3494 6.66192 21.4044 5.02685 19.77C3.39178 18.1357 2.44676 16.1766 2.19178 13.8928H0V11.701H2.19178C2.44749 9.41788 3.39288 7.45879 5.02795 5.82372C6.66301 4.18866 8.62173 3.24363 10.9041 2.98866V0.796875H13.0959V2.98866C15.379 3.24436 17.3381 4.18975 18.9732 5.82482C20.6082 7.45989 21.5532 9.41861 21.8082 11.701H24V13.8928H21.8082C21.5525 16.1759 20.6075 18.135 18.9732 19.77C17.3388 21.4051 15.3797 22.3501 13.0959 22.6051V24.7969H10.9041ZM12 20.4681C14.1187 20.4681 15.9269 19.7192 17.4247 18.2215C18.9224 16.7238 19.6712 14.9156 19.6712 12.7969C19.6712 10.6782 18.9224 8.86993 17.4247 7.37222C15.9269 5.8745 14.1187 5.12564 12 5.12564C9.88128 5.12564 8.07306 5.8745 6.57534 7.37222C5.07762 8.86993 4.32877 10.6782 4.32877 12.7969C4.32877 14.9156 5.07762 16.7238 6.57534 18.2215C8.07306 19.7192 9.88128 20.4681 12 20.4681ZM12 17.1804C10.7945 17.1804 9.76256 16.7512 8.90411 15.8928C8.04566 15.0343 7.61644 14.0024 7.61644 12.7969C7.61644 11.5914 8.04566 10.5594 8.90411 9.70098C9.76256 8.84254 10.7945 8.41331 12 8.41331C13.2055 8.41331 14.2374 8.84254 15.0959 9.70098C15.9543 10.5594 16.3836 11.5914 16.3836 12.7969C16.3836 14.0024 15.9543 15.0343 15.0959 15.8928C14.2374 16.7512 13.2055 17.1804 12 17.1804ZM12 14.9887C12.6027 14.9887 13.1189 14.7742 13.5485 14.3454C13.9781 13.9165 14.1925 13.4003 14.1918 12.7969C14.1918 12.1941 13.977 11.678 13.5474 11.2484C13.1178 10.8188 12.602 10.6044 12 10.6051C11.3973 10.6051 10.8811 10.8199 10.4515 11.2495C10.0219 11.6791 9.80749 12.1949 9.80822 12.7969C9.80822 13.3996 10.023 13.9158 10.4526 14.3454C10.8822 14.775 11.398 14.9894 12 14.9887Z" fill="#0B0A0A"/>
</svg>
