<svg width="30" height="30" viewBox="0 0 30 30" fill="none" xmlns="http://www.w3.org/2000/svg">
<path d="M25.5556 6.92308C25.2278 6.92308 24.9111 6.96577 24.6033 7.035C24.4667 4.93385 22.7989 3.26885 20.7411 3.26885C20.28 3.26885 19.8433 3.36692 19.4333 3.52038C18.1556 1.41115 15.9089 0 13.3333 0C9.42 0 6.25222 3.23885 6.13333 7.27269C5.61222 7.05 5.04333 6.92308 4.44444 6.92308C1.99 6.92308 0 8.98962 0 11.5385C0 14.0215 1.89222 16.0315 4.25889 16.1331L6.04111 14.2823L7.84333 16.1538H8.68556L10.4867 14.2823L12.2878 16.1538H13.13L14.9311 14.2823L16.7322 16.1538H17.5744L19.3756 14.2823L21.1767 16.1538H22.0189L23.82 14.2823L25.6156 16.1469C28.0411 16.1135 30 14.0665 30 11.5385C30 8.98962 28.01 6.92308 25.5556 6.92308ZM23.8889 15.6531L22.2956 17.3077H20.8978L19.3744 15.7258L17.8511 17.3077H16.4533L14.93 15.7258L13.4067 17.3077H12.0089L10.4856 15.7258L8.96222 17.3077H7.56556L6.04222 15.7258L4.51778 17.3077H4.44444L7.38889 30H22.5278L25.5556 17.3077H25.4822L23.8889 15.6531ZM10 28.8462L7.68556 18.4615H8.79667L11.1111 28.8462H10ZM12.2222 28.8462L11.0422 18.4615H12.1533L13.3333 28.8462H12.2222ZM15.5556 28.8462H14.4444V18.4615H15.5556V28.8462ZM16.6667 28.8462L17.8467 18.4615H18.9578L17.7778 28.8462H16.6667ZM20 28.8462H18.8889L21.18 18.4615H22.2911L20 28.8462Z" fill="#410C00"/>
</svg>
