<svg width="34" height="30" viewBox="0 0 34 30" fill="none" xmlns="http://www.w3.org/2000/svg">
<path d="M0 18.0038V24.0035C0 27.315 7.6075 30 17 30V24.0035C7.6075 24.0035 0 21.3121 0 18.007V18.0038ZM30.294 21.7414L17 18.0038V24.0035L30.294 27.7411C32.6117 26.7158 34 25.4181 34 24.0035V18.0038C34 19.4169 32.6117 20.7145 30.294 21.7414ZM17 12.009V18.0038C7.61175 18.0038 0 15.3172 0 12.0058V5.99647C0 2.68984 7.6075 0 17 0C26.3854 0 34 2.69144 34 5.99808V12.0058C34 13.4204 32.6117 14.7132 30.294 15.745L17 12.0042V12.009Z" fill="#410C00"/>
</svg>
