<svg width="30" height="30" viewBox="0 0 30 30" fill="none" xmlns="http://www.w3.org/2000/svg">
<path d="M27.944 13.2241C26.4277 9.30474 22.7295 6.2965 18.132 5.33905C19.3095 3.76184 21.2618 2.72512 23.4789 2.72512C27.081 2.72512 30 5.44921 30 8.80954C30 10.5535 29.2032 12.1153 27.944 13.2241ZM15.4017 2.95367V6.77934C21.6591 7.01716 26.6572 11.8116 26.6572 17.7066C26.6572 20.1692 25.7755 22.4341 24.3066 24.2615L27.0258 28.6565L24.7668 29.8744L22.4393 26.1126C20.4021 27.7011 17.781 28.6596 14.9194 28.6596C12.0733 28.6596 9.46439 27.7135 7.43268 26.1424L5.04341 30L2.78436 28.7821L5.56099 24.2975C4.07335 22.4629 3.18165 20.1846 3.18165 17.7066C3.18165 11.8507 8.11249 7.08305 14.3103 6.78552V2.95367C13.6779 2.74262 13.2188 2.19183 13.2188 1.5278C13.2188 0.683597 13.9527 0 14.8565 0C15.7604 0 16.4954 0.684626 16.4954 1.5278C16.4943 2.19183 16.0352 2.74262 15.4017 2.95367ZM5.78833 17.7066C5.78833 22.4115 9.87603 26.2237 14.9183 26.2237C19.9606 26.2237 24.0483 22.4115 24.0483 17.7066C24.0483 13.0038 19.9595 9.19046 14.9183 9.19046C9.87713 9.19046 5.78833 13.0038 5.78833 17.7066ZM17.6552 19.5484H14.3787C13.775 19.5484 13.2861 19.0923 13.2861 18.5292V14.4533C13.2861 13.8902 13.775 13.4341 14.3787 13.4341C14.9812 13.4341 15.4701 13.8902 15.4701 14.4533V17.51H17.6541C18.2578 17.51 18.7467 17.966 18.7467 18.5292C18.7467 19.0923 18.2589 19.5484 17.6552 19.5484ZM2.05709 13.2241C0.796792 12.1143 0 10.5535 0 8.80954C0 5.44921 2.9201 2.72512 6.52222 2.72512C8.73823 2.72512 10.6894 3.76184 11.8691 5.33905C7.27156 6.2965 3.57343 9.30474 2.05709 13.2241Z" fill="#410C00"/>
</svg>
