<svg width="30" height="30" viewBox="0 0 30 30" fill="none" xmlns="http://www.w3.org/2000/svg">
<path d="M11.3 26.925C12.5 27.2875 13.7125 27.5 15 27.5C18.3152 27.5 21.4946 26.183 23.8388 23.8388C26.183 21.4946 27.5 18.3152 27.5 15C27.5 13.3585 27.1767 11.733 26.5485 10.2165C25.9203 8.69989 24.9996 7.3219 23.8388 6.16117C22.6781 5.00043 21.3001 4.07969 19.7835 3.45151C18.267 2.82332 16.6415 2.5 15 2.5C13.3585 2.5 11.733 2.82332 10.2165 3.45151C8.69989 4.07969 7.3219 5.00043 6.16117 6.16117C3.81696 8.50537 2.5 11.6848 2.5 15C2.5 20.3125 5.8375 24.875 10.55 26.675C10.4375 25.7 10.325 24.0875 10.55 22.975L11.9875 16.8C11.9875 16.8 11.625 16.075 11.625 14.925C11.625 13.2 12.7 11.9125 13.925 11.9125C15 11.9125 15.5 12.7 15.5 13.7125C15.5 14.7875 14.7875 16.325 14.425 17.8C14.2125 19.025 15.075 20.1 16.325 20.1C18.55 20.1 20.275 17.725 20.275 14.375C20.275 11.375 18.125 9.325 15.0375 9.325C11.5125 9.325 9.4375 11.95 9.4375 14.7125C9.4375 15.7875 9.7875 16.875 10.3625 17.5875C10.475 17.6625 10.475 17.7625 10.4375 17.95L10.075 19.3125C10.075 19.525 9.9375 19.6 9.725 19.45C8.125 18.75 7.2 16.475 7.2 14.6375C7.2 10.6875 10 7.1 15.4 7.1C19.7 7.1 23.05 10.1875 23.05 14.2875C23.05 18.5875 20.3875 22.0375 16.575 22.0375C15.3625 22.0375 14.175 21.3875 13.75 20.625L12.9125 23.5875C12.625 24.6625 11.8375 26.1 11.3 26.9625V26.925Z" fill="#0B0A0A"/>
</svg>
